<?xml version="1.0" encoding="utf-8"?>
<!-- Generator: Adobe Illustrator 16.0.0, SVG Export Plug-In . SVG Version: 6.00 Build 0)  -->
<!DOCTYPE svg PUBLIC "-//W3C//DTD SVG 1.0//EN" "http://www.w3.org/TR/2001/REC-SVG-20010904/DTD/svg10.dtd">
<svg version="1.0" id="Layer_1" xmlns="http://www.w3.org/2000/svg" xmlns:xlink="http://www.w3.org/1999/xlink" x="0px" y="0px"
	 width="960px" height="560px" viewBox="0 0 960 560" enable-background="new 0 0 960 560" xml:space="preserve">
<g>
	<path fill="#040C26" d="M-37.4,42.7l1.2,13.4l-9.5,0.9l-3.6-39.6l15.8-1.4c3-0.3,5.8,0,8.2,0.9c2.4,0.9,4.4,2.3,5.8,4.3
		c1.5,1.9,2.3,4.2,2.6,6.8c0.4,3.9-0.7,7.1-3.3,9.6c-2.6,2.6-6.2,4.1-11.1,4.5L-37.4,42.7z M-38.1,35.4l6.3-0.6
		c1.8-0.2,3.2-0.8,4.1-1.8c0.9-1,1.3-2.4,1.1-4c-0.2-1.8-0.8-3.3-1.9-4.3c-1.1-1-2.5-1.5-4.2-1.3l-6.4,0.6L-38.1,35.4z"/>
	<path fill="#040C26" d="M23.6,50.7l-9.5,0.9L12.6,35l-14.1,1.3l1.5,16.5l-9.5,0.9l-3.6-39.6l9.5-0.9L-2.1,29L12,27.7L10.5,12
		l9.5-0.9L23.6,50.7z"/>
	<path fill="#040C26" d="M61.5,28.1c0.4,3.9-0.1,7.3-1.2,10.5c-1.2,3.1-3,5.6-5.5,7.4c-2.5,1.8-5.4,2.9-8.8,3.2s-6.4-0.2-9.2-1.5
		s-5-3.3-6.7-6.1c-1.7-2.8-2.8-6-3.2-9.7l-0.2-2.2c-0.4-3.9,0-7.4,1.2-10.5c1.2-3.1,3-5.6,5.5-7.4c2.5-1.9,5.5-2.9,8.9-3.2
		c3.4-0.3,6.4,0.2,9.2,1.6c2.8,1.4,5,3.4,6.8,6.3c1.7,2.8,2.8,6.1,3.1,9.9L61.5,28.1z M51.6,27.3c-0.4-3.9-1.3-6.9-2.8-8.8
		c-1.5-1.9-3.5-2.8-5.9-2.5c-4.8,0.4-7,4.3-6.6,11.5l0.2,2.9c0.4,3.9,1.3,6.8,2.7,8.8c1.5,2,3.5,2.8,6,2.6c2.4-0.2,4.2-1.4,5.3-3.6
		c1.1-2.2,1.5-5.2,1.2-9L51.6,27.3z"/>
	<path fill="#040C26" d="M94,11.8l-11.9,1.1L85,45.1L75.5,46l-2.9-32.2l-11.7,1.1l-0.7-7.4l33.1-3L94,11.8z"/>
	<path fill="#040C26" d="M132,21.7c0.4,3.9-0.1,7.3-1.2,10.5c-1.2,3.1-3,5.6-5.5,7.4c-2.5,1.8-5.4,2.9-8.8,3.2s-6.4-0.2-9.2-1.5
		c-2.8-1.3-5-3.3-6.7-6.1c-1.7-2.8-2.8-6-3.2-9.7l-0.2-2.2c-0.4-3.9,0-7.4,1.2-10.5c1.2-3.1,3-5.6,5.5-7.4c2.5-1.9,5.5-2.9,8.9-3.2
		c3.4-0.3,6.4,0.2,9.2,1.6c2.8,1.4,5,3.4,6.8,6.3c1.7,2.8,2.8,6.1,3.1,9.9L132,21.7z M122.1,20.9c-0.4-3.9-1.3-6.9-2.8-8.8
		c-1.5-1.9-3.5-2.8-5.9-2.5c-4.8,0.4-7,4.3-6.6,11.5l0.2,2.9c0.4,3.9,1.3,6.8,2.7,8.8s3.5,2.8,6,2.6c2.4-0.2,4.2-1.4,5.3-3.6
		c1.1-2.2,1.5-5.2,1.2-9L122.1,20.9z"/>
	<path fill="#040C26" d="M158.1,27.8c-0.1-1.4-0.7-2.4-1.8-3.1c-1.1-0.7-2.9-1.3-5.4-1.9c-2.6-0.6-4.7-1.2-6.3-1.9
		c-5.4-2.1-8.2-5.3-8.6-9.7c-0.2-2.2,0.3-4.2,1.4-6c1.1-1.8,2.8-3.3,5.1-4.4c2.3-1.1,4.8-1.9,7.8-2.1c2.8-0.3,5.4,0,7.8,0.8
		c2.4,0.8,4.2,2.1,5.7,3.9c1.4,1.8,2.2,3.9,2.5,6.3l-9.5,0.9c-0.1-1.6-0.8-2.8-1.8-3.6c-1.1-0.8-2.4-1.1-4.1-1
		c-1.7,0.2-3,0.7-3.9,1.5c-0.9,0.8-1.3,1.8-1.2,3c0.1,1,0.7,1.9,1.9,2.6c1.2,0.7,3.2,1.4,6,2c2.8,0.6,5.2,1.4,7,2.2
		c4.5,2.1,7,5.3,7.4,9.6c0.3,3.5-0.7,6.3-3.2,8.5c-2.4,2.2-5.9,3.5-10.5,3.9c-3.2,0.3-6.2,0-8.9-0.9c-2.7-0.9-4.8-2.3-6.3-4.2
		c-1.5-1.9-2.4-4.1-2.6-6.7l9.6-0.9c0.2,2.1,0.9,3.6,2.1,4.5c1.2,0.9,3,1.2,5.5,1c1.6-0.1,2.8-0.6,3.6-1.4
		C157.9,30,158.2,29,158.1,27.8z"/>
	<path fill="#040C26" d="M206.6,34l-9.5,0.9l-1.5-16.5l-14.1,1.3l1.5,16.5l-9.5,0.9l-3.6-39.6l9.5-0.9l1.4,15.7l14.1-1.3l-1.4-15.7
		l9.5-0.9L206.6,34z"/>
	<path fill="#040C26" d="M244.5,11.4c0.4,3.9-0.1,7.3-1.2,10.5c-1.2,3.1-3,5.6-5.5,7.4c-2.5,1.8-5.4,2.9-8.8,3.2s-6.4-0.2-9.2-1.5
		c-2.8-1.3-5-3.3-6.7-6.1c-1.7-2.8-2.8-6-3.2-9.7l-0.2-2.2c-0.4-3.9,0-7.4,1.2-10.5c1.2-3.1,3-5.6,5.5-7.4c2.5-1.9,5.5-2.9,8.9-3.2
		c3.4-0.3,6.4,0.2,9.2,1.6c2.8,1.4,5,3.4,6.8,6.3c1.7,2.8,2.8,6.1,3.1,9.9L244.5,11.4z M234.6,10.6c-0.4-3.9-1.3-6.9-2.8-8.8
		c-1.5-1.9-3.5-2.8-5.9-2.5c-4.8,0.4-7,4.3-6.6,11.5l0.2,2.9c0.4,3.9,1.3,6.8,2.7,8.8c1.5,2,3.5,2.8,6,2.6c2.4-0.2,4.2-1.4,5.3-3.6
		c1.1-2.2,1.5-5.2,1.2-9L234.6,10.6z"/>
	<path fill="#040C26" d="M259.4,15.6l1.2,13.4l-9.5,0.9l-3.6-39.6l15.8-1.4c3-0.3,5.8,0,8.2,0.9c2.4,0.9,4.4,2.3,5.8,4.3
		c1.5,1.9,2.3,4.2,2.6,6.8c0.4,3.9-0.7,7.1-3.3,9.6s-6.2,4.1-11.1,4.5L259.4,15.6z M258.8,8.2l6.3-0.6c1.8-0.2,3.2-0.8,4.1-1.8
		c0.9-1,1.3-2.4,1.1-4c-0.2-1.9-0.8-3.3-1.9-4.3c-1.1-1-2.5-1.5-4.2-1.3l-6.4,0.6L258.8,8.2z"/>
	<path fill="#040C26" d="M300,14.2l-4.4,0.4l-0.8,11.3l-5.4,0.5l0.8-11.3l-6,0.6l-0.5-5l6.9-0.6l0.5-7.3l-6,0.5l-0.5-5l6.8-0.6
		l0.8-11.5l5.4-0.5l-0.8,11.5l4.4-0.4l0.8-11.5l5.4-0.5l-0.8,11.5l6.3-0.6l0.5,5l-7.1,0.6l-0.5,7.3l6.2-0.6l0.5,5l-7,0.6L304.6,25
		l-5.4,0.5L300,14.2z M296,9.6l4.4-0.4l0.5-7.3l-4.4,0.4L296,9.6z"/>
	<path fill="#040C26" d="M329.9,22.7l-9.5,0.9L316.8-16l9.5-0.9L329.9,22.7z"/>
	<path fill="#040C26" d="M345.4,13.9l16.6-1.5l0.7,7.3l-26.2,2.4l-3.6-39.6l9.5-0.9L345.4,13.9z"/>
	<path fill="#040C26" d="M375.6,11.1l16.6-1.5l0.7,7.3l-26.2,2.4l-3.6-39.6l9.5-0.9L375.6,11.1z"/>
	<path fill="#040C26" d="M423.7-25.8l2.4,25.9c0.3,2.9-0.1,5.5-1.2,7.8c-1.1,2.3-2.7,4.1-4.9,5.4c-2.2,1.3-5,2.2-8.1,2.4
		c-4.8,0.4-8.7-0.5-11.7-2.7c-3-2.2-4.7-5.5-5.2-9.9l-2.4-26.1l9.6-0.9l2.4,26.3c0.5,4.3,2.7,6.3,6.6,5.9c2-0.2,3.4-0.9,4.3-2
		c0.9-1.2,1.3-3,1-5.4l-2.4-25.9L423.7-25.8z"/>
	<path fill="#040C26" d="M452.8,0.9c-0.1-1.4-0.7-2.4-1.8-3.1c-1.1-0.7-2.9-1.3-5.4-1.9c-2.6-0.6-4.7-1.2-6.3-1.9
		c-5.4-2.1-8.2-5.3-8.6-9.7c-0.2-2.2,0.3-4.2,1.4-6c1.1-1.8,2.8-3.3,5.1-4.4c2.3-1.1,4.8-1.9,7.8-2.1c2.8-0.3,5.4,0,7.8,0.8
		c2.4,0.8,4.2,2.1,5.7,3.9c1.4,1.8,2.2,3.9,2.5,6.3l-9.5,0.9c-0.1-1.6-0.8-2.8-1.8-3.6c-1.1-0.8-2.4-1.1-4.1-1
		c-1.7,0.2-3,0.7-3.9,1.5c-0.9,0.8-1.3,1.8-1.2,3c0.1,1,0.7,1.9,1.9,2.6c1.2,0.7,3.2,1.4,6,2c2.8,0.6,5.2,1.4,7,2.2
		c4.5,2.1,7,5.3,7.4,9.6c0.3,3.5-0.7,6.3-3.2,8.5c-2.4,2.2-5.9,3.5-10.5,3.9c-3.2,0.3-6.2,0-8.9-0.9c-2.7-0.9-4.8-2.3-6.3-4.2
		c-1.5-1.9-2.4-4.1-2.6-6.7l9.6-0.9c0.2,2.1,0.9,3.6,2.1,4.5c1.2,0.9,3,1.2,5.5,1c1.6-0.1,2.8-0.6,3.6-1.4
		C452.5,3.1,452.9,2.1,452.8,0.9z"/>
	<path fill="#040C26" d="M496.3-25l-11.9,1.1l2.9,32.2l-9.5,0.9L474.9-23L463.2-22l-0.7-7.4l33.1-3L496.3-25z"/>
	<path fill="#040C26" d="M516.7-8.5L511.6-8l1.3,14l-9.5,0.9l-3.6-39.6l15.6-1.4c4.7-0.4,8.5,0.3,11.3,2.1c2.8,1.8,4.4,4.7,4.8,8.5
		c0.3,2.8-0.1,5.1-1,7c-0.9,1.9-2.6,3.5-4.8,4.9l9.7,15.2l0,0.4L525,4.9L516.7-8.5z M510.9-15.3l6-0.6c1.8-0.2,3.1-0.8,4-1.8
		c0.8-1,1.2-2.4,1-4.1c-0.2-1.7-0.7-3-1.8-3.9c-1-0.9-2.4-1.3-4.2-1.1l-6,0.6L510.9-15.3z"/>
	<path fill="#040C26" d="M561.5-5.9l-13.1,1.2l-1.6,7.6l-10.2,0.9l10.9-40.9l9-0.8l18.3,38.3l-10.3,0.9L561.5-5.9z M550-12.3
		l8.5-0.8L553-26.4L550-12.3z"/>
	<path fill="#040C26" d="M602.5-34.7l-11.9,1.1l2.9,32.2L584-0.5L581-32.7l-11.7,1.1l-0.7-7.4l33.1-3L602.5-34.7z"/>
	<path fill="#040C26" d="M640.5-24.8c0.4,3.9-0.1,7.3-1.2,10.5c-1.2,3.1-3,5.6-5.5,7.4c-2.5,1.8-5.4,2.9-8.8,3.2
		c-3.4,0.3-6.4-0.2-9.2-1.5c-2.8-1.3-5-3.3-6.7-6.1c-1.7-2.8-2.8-6-3.2-9.7l-0.2-2.2c-0.4-3.9,0-7.4,1.2-10.5s3-5.6,5.5-7.4
		c2.5-1.9,5.5-2.9,8.8-3.2c3.4-0.3,6.4,0.2,9.2,1.6c2.8,1.4,5,3.4,6.8,6.3c1.7,2.8,2.8,6.1,3.1,9.9L640.5-24.8z M630.6-25.6
		c-0.4-3.9-1.3-6.9-2.8-8.8c-1.5-1.9-3.5-2.8-5.9-2.5c-4.8,0.4-7,4.3-6.6,11.5l0.2,2.9c0.4,3.9,1.3,6.8,2.7,8.8c1.5,2,3.5,2.8,6,2.6
		c2.4-0.2,4.2-1.4,5.3-3.6c1.1-2.2,1.5-5.2,1.2-9L630.6-25.6z"/>
	<path fill="#040C26" d="M660.6-21.6l-5.2,0.5l1.3,14l-9.5,0.9l-3.6-39.6l15.6-1.4c4.7-0.4,8.5,0.3,11.3,2.1
		c2.8,1.8,4.4,4.7,4.8,8.5c0.3,2.8-0.1,5.1-1,7c-0.9,1.9-2.6,3.5-4.8,4.9L679-9.6l0,0.4l-10.2,0.9L660.6-21.6z M654.7-28.5l6-0.6
		c1.8-0.2,3.1-0.8,4-1.8c0.8-1,1.2-2.4,1-4.1c-0.2-1.7-0.7-3-1.8-3.9c-1-0.9-2.4-1.3-4.2-1.1l-6,0.6L654.7-28.5z"/>
	<path fill="#040C26" d="M696.1-22l-4.4,0.4l-0.8,11.3l-5.4,0.5l0.8-11.3l-6,0.6l-0.5-5l6.9-0.6l0.5-7.3l-6,0.5l-0.5-5l6.8-0.6
		l0.8-11.5l5.4-0.5L693-39l4.4-0.4l0.8-11.5l5.4-0.5l-0.8,11.5l6.3-0.6l0.5,5l-7.1,0.6l-0.5,7.3l6.2-0.6l0.5,5l-7,0.6l-0.8,11.3
		l-5.4,0.5L696.1-22z M692.1-26.6l4.4-0.4l0.5-7.3l-4.4,0.4L692.1-26.6z"/>
	<path fill="#040C26" d="M726-13.5l-9.5,0.9l-3.6-39.6l9.5-0.9L726-13.5z"/>
	<path fill="#040C26" d="M765.7-17.1l-9.5,0.9l-16.3-23.4l2.3,24.6l-9.5,0.9L729-53.7l9.5-0.9l16.3,23.4l-2.3-24.6l9.5-0.9
		L765.7-17.1z"/>
	<path fill="#040C26" d="M771.8-17.6l-3.6-39.6l12.8-1.2c3.5-0.3,6.7,0.2,9.7,1.5c2.9,1.3,5.3,3.4,7.2,6.1c1.8,2.7,2.9,5.9,3.3,9.5
		l0.2,1.8c0.3,3.6-0.1,6.9-1.4,10s-3.2,5.5-5.9,7.3c-2.6,1.9-5.7,3-9.1,3.3L771.8-17.6z M778.4-50.7l2.3,24.9l3.3-0.3
		c2.7-0.3,4.8-1.4,6-3.5c1.3-2.1,1.8-5,1.4-8.9l-0.2-1.7c-0.3-3.8-1.3-6.6-3-8.4c-1.6-1.8-3.9-2.6-6.7-2.3L778.4-50.7z"/>
	<path fill="#040C26" d="M830.8-40l-15,1.4l0.9,9.5l17.7-1.6l0.7,7.3l-27.3,2.5l-3.6-39.6l27.3-2.5l0.7,7.4L814.4-54l0.8,8.3l15-1.4
		L830.8-40z"/>
	<path fill="#040C26" d="M858.4-36.2c-0.1-1.4-0.7-2.4-1.8-3.1c-1.1-0.7-2.9-1.3-5.4-1.9c-2.6-0.6-4.7-1.2-6.3-1.9
		c-5.4-2.1-8.2-5.3-8.6-9.7c-0.2-2.2,0.3-4.2,1.4-6c1.1-1.8,2.8-3.3,5.1-4.4c2.3-1.1,4.8-1.9,7.8-2.1c2.8-0.3,5.4,0,7.8,0.8
		c2.4,0.8,4.2,2.1,5.7,3.9c1.4,1.8,2.2,3.9,2.5,6.3l-9.5,0.9c-0.1-1.6-0.8-2.8-1.8-3.6c-1.1-0.8-2.4-1.1-4.1-1
		c-1.7,0.2-3,0.7-3.9,1.5c-0.9,0.8-1.3,1.8-1.2,3c0.1,1,0.7,1.9,1.9,2.6c1.2,0.7,3.2,1.4,6,2c2.8,0.6,5.2,1.4,7,2.2
		c4.5,2.1,7,5.3,7.4,9.6c0.3,3.5-0.7,6.3-3.2,8.5c-2.4,2.2-5.9,3.5-10.5,3.9c-3.2,0.3-6.2,0-8.9-0.9c-2.7-0.9-4.8-2.3-6.3-4.2
		c-1.5-1.9-2.4-4.1-2.6-6.7l9.6-0.9c0.2,2.1,0.9,3.6,2.1,4.5c1.2,0.9,3,1.2,5.5,1c1.6-0.1,2.8-0.6,3.6-1.4
		C858.2-33.9,858.5-34.9,858.4-36.2z"/>
	<path fill="#040C26" d="M884-27.9l-9.5,0.9l-3.6-39.6l9.5-0.9L884-27.9z"/>
	<path fill="#040C26" d="M922.6-36.4c-1.3,1.8-3.3,3.3-6.1,4.5c-2.7,1.3-5.8,2-9.2,2.3c-5.2,0.5-9.5-0.7-12.9-3.6
		c-3.4-2.9-5.5-7.2-6.2-12.8l-0.3-3.4c-0.4-3.9,0-7.4,1.1-10.4c1.1-3,2.9-5.5,5.3-7.3c2.4-1.8,5.3-2.9,8.7-3.2
		c4.9-0.5,8.9,0.3,11.8,2.3c2.9,2,4.8,5.2,5.7,9.7l-9.2,0.8c-0.5-2.2-1.4-3.7-2.6-4.5c-1.2-0.8-2.8-1.2-4.8-1
		c-2.4,0.2-4.2,1.4-5.3,3.6c-1.1,2.2-1.5,5.1-1.2,8.9l0.2,2.4c0.4,4,1.3,6.9,2.8,8.7c1.5,1.9,3.7,2.7,6.7,2.4
		c2.5-0.2,4.3-0.9,5.4-2.2l-0.6-6.1l-6.6,0.6l-0.6-6.6l16.2-1.5L922.6-36.4z"/>
	<path fill="#040C26" d="M961.7-35l-9.5,0.9l-16.3-23.4l2.3,24.6l-9.5,0.9L925-71.6l9.5-0.9l16.3,23.4l-2.3-24.6l9.5-0.9L961.7-35z"
		/>
	<path fill="#040C26" d="M980.3-47.9l-4.4,0.4l-0.8,11.3l-5.4,0.5l0.8-11.3l-6,0.6l-0.5-5l6.9-0.6l0.5-7.3l-6,0.5l-0.5-5l6.8-0.6
		l0.8-11.5l5.4-0.5l-0.8,11.5l4.4-0.4l0.8-11.5l5.4-0.5L987-65.8l6.3-0.6l0.5,5l-7.1,0.6l-0.5,7.3l6.2-0.6l0.5,5l-7,0.6L985-37.1
		l-5.4,0.5L980.3-47.9z M976.3-52.6l4.4-0.4l0.5-7.3l-4.4,0.4L976.3-52.6z"/>
	<path fill="#040C26" d="M-27,111.5l-4.4,0.4l-0.8,11.3l-5.4,0.5l0.8-11.3l-6,0.6l-0.5-5l6.9-0.6l0.5-7.3l-6,0.5l-0.5-5l6.8-0.6
		l0.8-11.5l5.4-0.5l-0.8,11.5l4.4-0.4l0.8-11.5l5.4-0.5l-0.8,11.5L-14,93l0.5,5l-7.1,0.6l-0.5,7.3l6.2-0.6l0.5,5l-7,0.6l-0.8,11.3
		l-5.4,0.5L-27,111.5z M-31,106.8l4.4-0.4l0.5-7.3l-4.4,0.4L-31,106.8z"/>
	<path fill="#040C26" d="M14.6,111.5l-13.1,1.2l-1.6,7.6l-10.2,0.9L0.6,80.3l9-0.8l18.3,38.3l-10.3,0.9L14.6,111.5z M3.1,105.1
		l8.5-0.8L6.1,91L3.1,105.1z"/>
	<path fill="#040C26" d="M39.6,76.7L51,103.5l6.3-28.4l12.6-1.1l3.6,39.6l-9.6,0.9l-0.8-9.2l-0.8-19l-7,29.1l-6.3,0.6L36.7,88.5
		l2.7,18.9l0.8,9.2l-9.5,0.9l-3.6-39.6L39.6,76.7z"/>
	<path fill="#040C26" d="M101.8,103.5l-13.1,1.2l-1.6,7.6l-10.2,0.9l10.9-40.9l9-0.8l18.3,38.3l-10.3,0.9L101.8,103.5z M90.4,97.1
		l8.5-0.8L93.4,83L90.4,97.1z"/>
	<path fill="#040C26" d="M128,101.2l18.9-1.7l0.7,7.3l-30.8,2.8l-0.5-5l16.4-28.9l-19,1.7L113,70l30.8-2.8l0.4,4.9L128,101.2z"/>
	<path fill="#040C26" d="M183,84.4c0.4,3.9-0.1,7.3-1.2,10.5c-1.2,3.1-3,5.6-5.5,7.4c-2.5,1.8-5.4,2.9-8.8,3.2
		c-3.4,0.3-6.4-0.2-9.2-1.5s-5-3.3-6.7-6.1c-1.7-2.8-2.8-6-3.2-9.7l-0.2-2.2c-0.4-3.9,0-7.4,1.2-10.5c1.2-3.1,3-5.6,5.5-7.4
		s5.5-2.9,8.9-3.2c3.4-0.3,6.4,0.2,9.2,1.6c2.8,1.4,5,3.4,6.8,6.3s2.8,6.1,3.1,9.9L183,84.4z M173.2,83.6c-0.4-3.9-1.3-6.9-2.8-8.8
		c-1.5-1.9-3.5-2.8-5.9-2.5c-4.8,0.4-7,4.3-6.6,11.5l0.2,2.9c0.4,3.9,1.3,6.8,2.7,8.8c1.5,2,3.5,2.8,6,2.6c2.4-0.2,4.2-1.4,5.3-3.6
		c1.1-2.2,1.5-5.2,1.2-9L173.2,83.6z"/>
	<path fill="#040C26" d="M222.8,99.9l-9.5,0.9L197,77.4l2.3,24.6l-9.5,0.9l-3.6-39.6l9.5-0.9l16.3,23.4l-2.3-24.6l9.5-0.9
		L222.8,99.9z"/>
	<path fill="#040C26" d="M241.4,87l-4.4,0.4l-0.8,11.3l-5.4,0.5l0.8-11.3l-6,0.6l-0.5-5l6.9-0.6l0.5-7.3l-6,0.5l-0.5-5l6.8-0.6
		l0.8-11.5l5.4-0.5L238.3,70l4.4-0.4l0.8-11.5l5.4-0.5l-0.8,11.5l6.3-0.6l0.5,5l-7.1,0.6l-0.5,7.3l6.2-0.6l0.5,5l-7,0.6L246,97.8
		l-5.4,0.5L241.4,87z M237.4,82.3l4.4-0.4l0.5-7.3L238,75L237.4,82.3z"/>
	<path fill="#040C26" d="M270.1,55.7l11.4,26.7l6.3-28.4l12.6-1.1l3.6,39.6l-9.6,0.9l-0.8-9.2l-0.8-19l-7,29.1l-6.3,0.6l-12.2-27.3
		l2.7,18.9l0.8,9.2l-9.5,0.9l-3.6-39.6L270.1,55.7z"/>
	<path fill="#040C26" d="M332.3,82.4l-13.1,1.2l-1.6,7.6l-10.2,0.9l10.9-40.9l9-0.8l18.3,38.3l-10.3,0.9L332.3,82.4z M320.8,76.1
		l8.5-0.8l-5.5-13.3L320.8,76.1z"/>
	<path fill="#040C26" d="M361.9,73.1l-5.2,0.5l1.3,14l-9.5,0.9l-3.6-39.6l15.6-1.4c4.7-0.4,8.5,0.3,11.3,2.1
		c2.8,1.8,4.4,4.7,4.8,8.5c0.3,2.8-0.1,5.1-1,7c-0.9,1.9-2.6,3.5-4.8,4.9l9.7,15.2l0,0.4l-10.2,0.9L361.9,73.1z M356,66.2l6-0.6
		c1.8-0.2,3.1-0.8,4-1.8c0.8-1,1.2-2.4,1-4.1c-0.2-1.7-0.7-3-1.8-3.9c-1-0.9-2.4-1.3-4.2-1.1l-6,0.6L356,66.2z"/>
	<path fill="#040C26" d="M396.9,69.1l-3.5,4.7l1,10.4l-9.5,0.9l-3.6-39.6l9.5-0.9l1.6,17.5l2.9-5.3l7.4-13.2l11.8-1.1l-11.8,18.7
		L418,82.1l-11.3,1L396.9,69.1z"/>
	<path fill="#040C26" d="M443.4,62.8l-15,1.4l0.9,9.5L447,72l0.7,7.3l-27.3,2.5l-3.6-39.6l27.3-2.5l0.7,7.4L427,48.8l0.8,8.3l15-1.4
		L443.4,62.8z"/>
	<path fill="#040C26" d="M480.3,43.9L468.4,45l2.9,32.2l-9.5,0.9l-2.9-32.2l-11.7,1.1l-0.7-7.4l33.1-3L480.3,43.9z"/>
	<path fill="#040C26" d="M495.5,61.4l1.2,13.4l-9.5,0.9l-3.6-39.6l15.8-1.4c3-0.3,5.8,0,8.2,0.9c2.4,0.9,4.4,2.3,5.8,4.3
		c1.5,1.9,2.3,4.2,2.6,6.8c0.4,3.9-0.7,7.1-3.3,9.6c-2.6,2.6-6.2,4.1-11.1,4.5L495.5,61.4z M494.9,54.1l6.3-0.6
		c1.8-0.2,3.2-0.8,4.1-1.8c0.9-1,1.3-2.4,1.1-4c-0.2-1.8-0.8-3.3-1.9-4.3c-1.1-1-2.5-1.5-4.2-1.3l-6.4,0.6L494.9,54.1z"/>
	<path fill="#040C26" d="M532.4,64.2l16.6-1.5l0.7,7.3l-26.2,2.4l-3.6-39.6l9.5-0.9L532.4,64.2z"/>
	<path fill="#040C26" d="M576,60.2l-13.1,1.2l-1.6,7.6l-10.2,0.9L562,29l9-0.8l18.3,38.3L579,67.4L576,60.2z M564.5,53.8l8.5-0.8
		l-5.5-13.3L564.5,53.8z"/>
	<path fill="#040C26" d="M622.4,49.9c0.1,2.8-0.4,5.3-1.6,7.5c-1.2,2.2-2.9,4-5.3,5.4c-2.4,1.4-5.1,2.2-8.3,2.5
		c-5.2,0.5-9.5-0.8-12.8-4c-3.3-3.1-5.2-7.8-5.8-14l-0.2-2c-0.4-3.9,0-7.3,1.1-10.4c1.1-3,2.8-5.5,5.2-7.3c2.4-1.8,5.3-2.9,8.6-3.2
		c4.8-0.4,8.8,0.5,11.9,2.7c3.2,2.3,5.1,5.6,5.9,10l-9.5,0.9c-0.3-2.4-1.1-4.1-2.3-5c-1.2-0.9-3-1.3-5.4-1.1c-2.4,0.2-4,1.3-5,3.1
		c-0.9,1.9-1.3,4.8-1,8.7l0.3,2.8c0.4,4.2,1.2,7.2,2.4,8.9c1.2,1.7,3.1,2.5,5.7,2.2c2.2-0.2,3.8-0.9,4.9-2c1.1-1.1,1.5-2.8,1.4-5.1
		L622.4,49.9z"/>
	<path fill="#040C26" d="M651.2,43.8l-15,1.4l0.9,9.5l17.7-1.6l0.7,7.3l-27.3,2.5l-3.6-39.6l27.3-2.5l0.7,7.4l-17.8,1.6l0.8,8.4
		l15-1.4L651.2,43.8z"/>
	<path fill="#040C26" d="M678.8,47.6c-0.1-1.4-0.7-2.4-1.8-3.1c-1.1-0.7-2.9-1.3-5.4-1.9c-2.6-0.6-4.7-1.2-6.3-1.9
		c-5.4-2.1-8.2-5.3-8.6-9.7c-0.2-2.2,0.3-4.2,1.4-6c1.1-1.8,2.8-3.3,5.1-4.4c2.3-1.1,4.8-1.9,7.8-2.1c2.8-0.3,5.4,0,7.8,0.8
		c2.4,0.8,4.2,2.1,5.7,3.9c1.4,1.8,2.2,3.9,2.5,6.3l-9.5,0.9c-0.1-1.6-0.8-2.8-1.8-3.6c-1.1-0.8-2.4-1.1-4.1-1
		c-1.7,0.2-3,0.7-3.9,1.5c-0.9,0.8-1.3,1.8-1.2,3c0.1,1,0.7,1.9,1.9,2.6c1.2,0.7,3.2,1.4,6,2c2.8,0.6,5.2,1.4,7,2.2
		c4.5,2.1,7,5.3,7.4,9.6c0.3,3.5-0.7,6.3-3.2,8.5c-2.4,2.2-5.9,3.5-10.5,3.9c-3.2,0.3-6.2,0-8.9-0.9c-2.7-0.9-4.8-2.3-6.3-4.2
		c-1.5-1.9-2.4-4.1-2.6-6.7l9.6-0.9c0.2,2.1,0.9,3.6,2.1,4.5c1.2,0.9,3,1.2,5.5,1c1.6-0.1,2.8-0.6,3.6-1.4
		C678.5,49.9,678.9,48.9,678.8,47.6z"/>
	<path fill="#040C26" d="M706.8,44.5l-4.4,0.4l-0.8,11.3l-5.4,0.5l0.8-11.3l-6,0.6l-0.5-5l6.9-0.6l0.5-7.3l-6,0.5l-0.5-5l6.8-0.6
		l0.8-11.5l5.4-0.5l-0.8,11.5l4.4-0.4l0.8-11.5l5.4-0.5l-0.8,11.5l6.3-0.6l0.5,5l-7.1,0.6l-0.5,7.3l6.2-0.6l0.5,5l-7,0.6l-0.8,11.3
		l-5.4,0.5L706.8,44.5z M702.8,39.8l4.4-0.4l0.5-7.3l-4.4,0.4L702.8,39.8z"/>
	<path fill="#040C26" d="M749.6,34.8l-15,1.4l0.9,9.5l17.7-1.6l0.7,7.3l-27.3,2.5l-3.6-39.6l27.3-2.5l0.7,7.4l-17.8,1.6l0.8,8.4
		l15-1.4L749.6,34.8z"/>
	<path fill="#040C26" d="M757.7,51l-3.6-39.6l14.2-1.3c5.1-0.5,9.1,0.1,11.9,1.7c2.8,1.6,4.4,4.2,4.7,7.8c0.2,2-0.1,3.8-0.9,5.4
		c-0.8,1.5-2.1,2.7-3.9,3.6c2.1,0.4,3.8,1.2,5,2.6c1.2,1.4,2,3.1,2.2,5.3c0.4,3.9-0.6,6.9-2.9,9.1c-2.3,2.2-5.8,3.5-10.6,4L757.7,51
		z M765.1,27.1l5-0.5c2.1-0.2,3.5-0.7,4.4-1.6c0.8-0.8,1.2-2,1-3.4c-0.2-1.7-0.7-2.8-1.8-3.5c-1-0.6-2.6-0.9-4.8-0.7l-4.7,0.4
		L765.1,27.1z M765.7,33.3l0.9,9.5l6.3-0.6c1.7-0.2,3-0.7,3.9-1.5c0.9-0.9,1.2-2,1.1-3.5c-0.3-3.3-2.1-4.8-5.4-4.5L765.7,33.3z"/>
	<path fill="#040C26" d="M815.5,38.3l-13.1,1.2l-1.6,7.6L790.6,48l10.9-40.9l9-0.8l18.3,38.3l-10.3,0.9L815.5,38.3z M804,31.9
		l8.5-0.8L807,17.8L804,31.9z"/>
	<path fill="#040C26" d="M840,20.9l5.7-17.9L856,2.1l-10.4,26.5l1.3,14.2l-9.7,0.9l-1.3-14.2l-15-24.2l10.3-0.9L840,20.9z"/>
	<path fill="#040C26" d="M875.1,29.1l-4.4,0.4l-0.8,11.3l-5.4,0.5l0.8-11.3l-6,0.6l-0.5-5l6.9-0.6l0.5-7.3l-6,0.5l-0.5-5l6.8-0.6
		l0.8-11.5l5.4-0.5L872,12.1l4.4-0.4l0.8-11.5l5.4-0.5l-0.8,11.5l6.3-0.6l0.5,5l-7.1,0.6l-0.5,7.3l6.2-0.6l0.5,5l-7,0.6l-0.8,11.3
		l-5.4,0.5L875.1,29.1z M871.1,24.4l4.4-0.4l0.5-7.3l-4.4,0.4L871.1,24.4z"/>
	<path fill="#040C26" d="M916.7,29.1l-13.1,1.2l-1.6,7.6l-10.2,0.9l10.9-40.9l9-0.8l18.3,38.3l-10.3,0.9L916.7,29.1z M905.2,22.7
		l8.5-0.8l-5.5-13.3L905.2,22.7z"/>
	<path fill="#040C26" d="M941.7-5.7L953.1,21l6.3-28.4l12.6-1.1l3.6,39.6L966,32l-0.8-9.2l-0.8-19l-7,29.1l-6.3,0.6L938.8,6.1
		l2.7,18.9l0.8,9.2l-9.5,0.9l-3.6-39.6L941.7-5.7z"/>
	<path fill="#040C26" d="M1003.9,21.1l-13.1,1.2l-1.6,7.6L979,30.8l10.9-40.9l9-0.8l18.3,38.3l-10.3,0.9L1003.9,21.1z M992.5,14.7
		l8.5-0.8l-5.5-13.3L992.5,14.7z"/>
	<path fill="#040C26" d="M1030.1,18.8L1049,17l0.7,7.3l-30.8,2.8l-0.5-5l16.4-28.9l-19,1.7l-0.7-7.4l30.8-2.8l0.4,4.9L1030.1,18.8z"
		/>
	<path fill="#040C26" d="M1085.1,2c0.4,3.9-0.1,7.3-1.2,10.5c-1.2,3.1-3,5.6-5.5,7.4c-2.5,1.8-5.4,2.9-8.8,3.2s-6.4-0.2-9.2-1.5
		c-2.8-1.3-5-3.3-6.7-6.1c-1.7-2.8-2.8-6-3.2-9.7l-0.2-2.2c-0.4-3.9,0-7.4,1.2-10.5c1.2-3.1,3-5.6,5.5-7.4c2.5-1.9,5.5-2.9,8.8-3.2
		c3.4-0.3,6.4,0.2,9.2,1.6c2.8,1.4,5,3.4,6.8,6.3c1.7,2.8,2.8,6.1,3.1,9.9L1085.1,2z M1075.3,1.2c-0.4-3.9-1.3-6.9-2.8-8.8
		c-1.5-1.9-3.5-2.8-5.9-2.5c-4.8,0.4-7,4.3-6.6,11.5l0.2,2.9c0.4,3.9,1.3,6.8,2.7,8.8c1.5,2,3.5,2.8,6,2.6c2.4-0.2,4.2-1.4,5.3-3.6
		c1.1-2.2,1.5-5.2,1.2-9L1075.3,1.2z"/>
	<path fill="#040C26" d="M1124.9,17.5l-9.5,0.9L1099.1-5l2.3,24.6l-9.5,0.9l-3.6-39.6l9.5-0.9L1114,3.4l-2.3-24.6l9.5-0.9
		L1124.9,17.5z"/>
	<path fill="#040C26" d="M-25.2,176.4l1.2,13.4l-9.5,0.9l-3.6-39.6l15.8-1.4c3-0.3,5.8,0,8.2,0.9c2.4,0.9,4.4,2.3,5.8,4.3
		c1.5,1.9,2.3,4.2,2.6,6.8c0.4,3.9-0.7,7.1-3.3,9.6s-6.2,4.1-11.1,4.5L-25.2,176.4z M-25.9,169l6.3-0.6c1.8-0.2,3.2-0.8,4.1-1.8
		c0.9-1,1.3-2.4,1.1-4c-0.2-1.8-0.8-3.3-1.9-4.3c-1.1-1-2.5-1.5-4.2-1.3l-6.4,0.6L-25.9,169z"/>
	<path fill="#040C26" d="M35.9,184.4l-9.5,0.9l-1.5-16.5L10.8,170l1.5,16.5l-9.5,0.9l-3.6-39.6l9.5-0.9l1.4,15.7l14.1-1.3l-1.4-15.7
		l9.5-0.9L35.9,184.4z"/>
	<path fill="#040C26" d="M73.7,161.8c0.4,3.9-0.1,7.3-1.2,10.5c-1.2,3.1-3,5.6-5.5,7.4c-2.5,1.8-5.4,2.9-8.8,3.2s-6.4-0.2-9.2-1.5
		c-2.8-1.3-5-3.3-6.7-6.1c-1.7-2.8-2.8-6-3.2-9.7l-0.2-2.2c-0.4-3.9,0-7.4,1.2-10.5c1.2-3.1,3-5.6,5.5-7.4c2.5-1.9,5.5-2.9,8.9-3.2
		c3.4-0.3,6.4,0.2,9.2,1.6c2.8,1.4,5,3.4,6.8,6.3c1.7,2.8,2.8,6.1,3.1,9.9L73.7,161.8z M63.8,161c-0.4-3.9-1.3-6.9-2.8-8.8
		c-1.5-1.9-3.5-2.8-5.9-2.5c-4.8,0.4-7,4.3-6.6,11.5l0.2,2.9c0.4,3.9,1.3,6.8,2.7,8.8c1.5,2,3.5,2.8,6,2.6c2.4-0.2,4.2-1.4,5.3-3.6
		c1.1-2.2,1.5-5.2,1.2-9L63.8,161z"/>
	<path fill="#040C26" d="M106.2,145.5l-11.9,1.1l2.9,32.2l-9.5,0.9l-2.9-32.2l-11.7,1.1l-0.7-7.4l33.1-3L106.2,145.5z"/>
	<path fill="#040C26" d="M144.2,155.4c0.4,3.9-0.1,7.3-1.2,10.5c-1.2,3.1-3,5.6-5.5,7.4c-2.5,1.8-5.4,2.9-8.8,3.2
		c-3.4,0.3-6.4-0.2-9.2-1.5c-2.8-1.3-5-3.3-6.7-6.1c-1.7-2.8-2.8-6-3.2-9.7l-0.2-2.2c-0.4-3.9,0-7.4,1.2-10.5c1.2-3.1,3-5.6,5.5-7.4
		c2.5-1.9,5.5-2.9,8.9-3.2c3.4-0.3,6.4,0.2,9.2,1.6c2.8,1.4,5,3.4,6.8,6.3c1.7,2.8,2.8,6.1,3.1,9.9L144.2,155.4z M134.3,154.6
		c-0.4-3.9-1.3-6.9-2.8-8.8c-1.5-1.9-3.5-2.8-5.9-2.5c-4.8,0.4-7,4.3-6.6,11.5l0.2,2.9c0.4,3.9,1.3,6.8,2.7,8.8c1.5,2,3.5,2.8,6,2.6
		c2.4-0.2,4.2-1.4,5.3-3.6c1.1-2.2,1.5-5.2,1.2-9L134.3,154.6z"/>
	<path fill="#040C26" d="M170.3,161.5c-0.1-1.4-0.7-2.4-1.8-3.1c-1.1-0.7-2.9-1.3-5.4-1.9c-2.6-0.6-4.7-1.2-6.3-1.9
		c-5.4-2.1-8.2-5.3-8.6-9.7c-0.2-2.2,0.3-4.2,1.4-6c1.1-1.8,2.8-3.3,5.1-4.4c2.3-1.1,4.8-1.9,7.8-2.1c2.8-0.3,5.4,0,7.8,0.8
		c2.4,0.8,4.2,2.1,5.7,3.9c1.4,1.8,2.2,3.8,2.5,6.3l-9.5,0.9c-0.1-1.6-0.8-2.8-1.8-3.6c-1.1-0.8-2.4-1.1-4.1-1
		c-1.7,0.2-3,0.7-3.9,1.5c-0.9,0.8-1.3,1.8-1.2,3c0.1,1,0.7,1.9,1.9,2.6c1.2,0.7,3.2,1.4,6,2c2.8,0.6,5.2,1.4,7,2.2
		c4.5,2.1,7,5.3,7.4,9.6c0.3,3.5-0.7,6.3-3.2,8.5c-2.4,2.2-5.9,3.5-10.5,3.9c-3.2,0.3-6.2,0-8.9-0.9c-2.7-0.9-4.8-2.3-6.3-4.2
		c-1.5-1.9-2.4-4.1-2.6-6.7l9.6-0.9c0.2,2.1,0.9,3.6,2.1,4.5c1.2,0.9,3,1.2,5.5,1c1.6-0.1,2.8-0.6,3.6-1.4
		C170.1,163.7,170.4,162.7,170.3,161.5z"/>
	<path fill="#040C26" d="M218.8,167.7l-9.5,0.9l-1.5-16.5l-14.1,1.3l1.5,16.5l-9.5,0.9l-3.6-39.6l9.5-0.9l1.4,15.7l14.1-1.3
		l-1.4-15.7l9.5-0.9L218.8,167.7z"/>
	<path fill="#040C26" d="M256.7,145.1c0.4,3.9-0.1,7.3-1.2,10.5c-1.2,3.1-3,5.6-5.5,7.4c-2.5,1.8-5.4,2.9-8.8,3.2
		c-3.4,0.3-6.4-0.2-9.2-1.5c-2.8-1.3-5-3.3-6.7-6.1s-2.8-6-3.2-9.7l-0.2-2.2c-0.4-3.9,0-7.4,1.2-10.5c1.2-3.1,3-5.6,5.5-7.4
		c2.5-1.9,5.5-2.9,8.9-3.2c3.4-0.3,6.4,0.2,9.2,1.6c2.8,1.4,5,3.4,6.8,6.3c1.7,2.8,2.8,6.1,3.1,9.9L256.7,145.1z M246.8,144.3
		c-0.4-3.9-1.3-6.9-2.8-8.8c-1.5-1.9-3.5-2.8-5.9-2.5c-4.8,0.4-7,4.3-6.6,11.5l0.2,2.9c0.4,3.9,1.3,6.8,2.7,8.8c1.5,2,3.5,2.8,6,2.6
		c2.4-0.2,4.2-1.4,5.3-3.6c1.1-2.2,1.5-5.2,1.2-9L246.8,144.3z"/>
	<path fill="#040C26" d="M271.7,149.3l1.2,13.4l-9.5,0.9l-3.6-39.6l15.8-1.4c3-0.3,5.8,0,8.2,0.9c2.4,0.9,4.4,2.3,5.8,4.3
		c1.5,1.9,2.3,4.2,2.6,6.8c0.4,3.9-0.7,7.1-3.3,9.6c-2.6,2.6-6.2,4.1-11.1,4.5L271.7,149.3z M271,141.9l6.3-0.6
		c1.8-0.2,3.2-0.8,4.1-1.8c0.9-1,1.3-2.4,1.1-4c-0.2-1.8-0.8-3.3-1.9-4.3c-1.1-1-2.5-1.5-4.2-1.3l-6.4,0.6L271,141.9z"/>
	<path fill="#040C26" d="M312.2,147.9l-4.4,0.4l-0.8,11.3l-5.4,0.5l0.8-11.3l-6,0.6l-0.5-5l6.9-0.6l0.5-7.3l-6,0.5l-0.5-5l6.8-0.6
		l0.8-11.5l5.4-0.5l-0.8,11.5l4.4-0.4l0.8-11.5l5.4-0.5l-0.8,11.5l6.3-0.6l0.5,5l-7.1,0.6l-0.5,7.3l6.2-0.6l0.5,5l-7,0.6l-0.8,11.3
		l-5.4,0.5L312.2,147.9z M308.2,143.2l4.4-0.4l0.5-7.3l-4.4,0.4L308.2,143.2z"/>
	<path fill="#040C26" d="M355,138.3l-15,1.4l0.9,9.5l17.7-1.6l0.7,7.3l-27.3,2.5l-3.6-39.6l27.3-2.5l0.7,7.4l-17.8,1.6l0.8,8.4
		l15-1.4L355,138.3z"/>
	<path fill="#040C26" d="M393.9,138.2c0.1,2.8-0.4,5.3-1.6,7.5s-2.9,4-5.3,5.4c-2.4,1.4-5.1,2.2-8.3,2.5c-5.2,0.5-9.5-0.8-12.8-4
		c-3.3-3.1-5.2-7.8-5.8-14l-0.2-2c-0.4-3.9,0-7.3,1.1-10.4c1.1-3,2.8-5.5,5.2-7.3c2.4-1.8,5.3-2.9,8.6-3.2c4.8-0.4,8.8,0.5,11.9,2.7
		c3.2,2.3,5.1,5.6,5.9,10l-9.5,0.9c-0.3-2.4-1.1-4.1-2.3-5c-1.2-0.9-3-1.3-5.4-1.1c-2.4,0.2-4,1.3-5,3.1c-0.9,1.9-1.3,4.8-1,8.7
		l0.3,2.8c0.4,4.2,1.2,7.2,2.4,8.9c1.2,1.7,3.1,2.5,5.7,2.2c2.2-0.2,3.8-0.9,4.9-2c1.1-1.1,1.5-2.8,1.4-5.1L393.9,138.2z"/>
	<path fill="#040C26" d="M431.5,129.1c0.4,3.9-0.1,7.3-1.2,10.5c-1.2,3.1-3,5.6-5.5,7.4c-2.5,1.8-5.4,2.9-8.8,3.2
		c-3.4,0.3-6.4-0.2-9.2-1.5c-2.8-1.3-5-3.3-6.7-6.1c-1.7-2.8-2.8-6-3.2-9.7l-0.2-2.2c-0.4-3.9,0-7.4,1.2-10.5c1.2-3.1,3-5.6,5.5-7.4
		c2.5-1.9,5.5-2.9,8.9-3.2c3.4-0.3,6.4,0.2,9.2,1.6c2.8,1.4,5,3.4,6.8,6.3s2.8,6.1,3.1,9.9L431.5,129.1z M421.6,128.3
		c-0.4-3.9-1.3-6.9-2.8-8.8c-1.5-1.9-3.5-2.8-5.9-2.5c-4.8,0.4-7,4.3-6.6,11.5l0.2,2.9c0.4,3.9,1.3,6.8,2.7,8.8c1.5,2,3.5,2.8,6,2.6
		c2.4-0.2,4.2-1.4,5.3-3.6c1.1-2.2,1.5-5.2,1.2-9L421.6,128.3z"/>
	<path fill="#040C26" d="M447.1,106.9l11.4,26.7l6.3-28.4l12.6-1.1l3.6,39.6l-9.6,0.9l-0.8-9.2l-0.8-19l-7,29.1l-6.3,0.6l-12.2-27.3
		l2.7,18.9l0.8,9.2l-9.5,0.9l-3.6-39.6L447.1,106.9z"/>
	<path fill="#040C26" d="M495.9,102.4l11.4,26.7l6.3-28.4l12.6-1.1l3.6,39.6l-9.6,0.9l-0.8-9.2l-0.8-19l-7,29.1l-6.3,0.6L493,114.2
		l2.7,18.9l0.8,9.2l-9.5,0.9l-3.6-39.6L495.9,102.4z"/>
	<path fill="#040C26" d="M558.8,119.7l-15,1.4l0.9,9.5l17.7-1.6l0.7,7.3l-27.3,2.5l-3.6-39.6l27.3-2.5l0.7,7.4l-17.8,1.6l0.8,8.3
		l15-1.4L558.8,119.7z"/>
	<path fill="#040C26" d="M580.4,120.5l-5.2,0.5l1.3,14l-9.5,0.9l-3.6-39.6l15.6-1.4c4.7-0.4,8.5,0.3,11.3,2.1
		c2.8,1.8,4.4,4.7,4.8,8.5c0.3,2.8-0.1,5.1-1,7c-0.9,1.9-2.6,3.5-4.8,4.9l9.7,15.2l0,0.4l-10.2,0.9L580.4,120.5z M574.6,113.7l6-0.6
		c1.8-0.2,3.1-0.8,4-1.8c0.8-1,1.2-2.4,1-4.1c-0.2-1.7-0.7-3-1.8-3.9c-1-0.9-2.4-1.3-4.2-1.1l-6,0.6L574.6,113.7z"/>
	<path fill="#040C26" d="M634.1,116.2c0.1,2.8-0.4,5.3-1.6,7.5s-2.9,4-5.3,5.4c-2.4,1.4-5.1,2.2-8.3,2.5c-5.2,0.5-9.5-0.8-12.8-4
		c-3.3-3.1-5.2-7.8-5.8-14l-0.2-2c-0.4-3.9,0-7.3,1.1-10.4c1.1-3,2.8-5.5,5.2-7.3c2.4-1.8,5.3-2.9,8.6-3.2c4.8-0.4,8.8,0.5,11.9,2.7
		c3.2,2.3,5.1,5.6,5.9,10l-9.5,0.9c-0.3-2.4-1.1-4.1-2.3-5s-3-1.3-5.4-1.1c-2.4,0.2-4,1.3-5,3.1c-0.9,1.9-1.3,4.8-1,8.7l0.3,2.8
		c0.4,4.2,1.2,7.2,2.4,8.9c1.2,1.7,3.1,2.5,5.7,2.2c2.2-0.2,3.8-0.9,4.9-2c1.1-1.1,1.5-2.8,1.4-5.1L634.1,116.2z"/>
	<path fill="#040C26" d="M662.9,110.2l-15,1.4l0.9,9.5l17.7-1.6l0.7,7.3l-27.3,2.5l-3.6-39.6l27.3-2.5l0.7,7.4l-17.8,1.6l0.8,8.3
		l15-1.4L662.9,110.2z"/>
	<path fill="#040C26" d="M683.7,114l-4.4,0.4l-0.8,11.3l-5.4,0.5l0.8-11.3l-6,0.6l-0.5-5l6.9-0.6l0.5-7.3l-6,0.5l-0.5-5l6.8-0.6
		L676,86l5.4-0.5L680.6,97l4.4-0.4l0.8-11.5l5.4-0.5l-0.8,11.5l6.3-0.6l0.5,5l-7.1,0.6l-0.5,7.3l6.2-0.6l0.5,5l-7,0.6l-0.8,11.3
		l-5.4,0.5L683.7,114z M679.7,109.3l4.4-0.4l0.5-7.3l-4.4,0.4L679.7,109.3z"/>
	<path fill="#040C26" d="M725.2,114l-13.1,1.2l-1.6,7.6l-10.2,0.9l10.9-40.9l9-0.8l18.3,38.3l-10.3,0.9L725.2,114z M713.8,107.6
		l8.5-0.8l-5.5-13.3L713.8,107.6z"/>
	<path fill="#040C26" d="M754.8,104.6l-5.2,0.5l1.3,14l-9.5,0.9l-3.6-39.6l15.6-1.4c4.7-0.4,8.5,0.3,11.3,2.1
		c2.8,1.8,4.4,4.7,4.8,8.5c0.3,2.8-0.1,5.1-1,7c-0.9,1.9-2.6,3.5-4.8,4.9l9.7,15.2l0,0.4l-10.2,0.9L754.8,104.6z M748.9,97.7l6-0.6
		c1.8-0.2,3.1-0.8,4-1.8c0.8-1,1.2-2.4,1-4.1c-0.2-1.7-0.7-3-1.8-3.9c-1-0.9-2.4-1.3-4.2-1.1l-6,0.6L748.9,97.7z"/>
	<path fill="#040C26" d="M804.5,81.7l-11.9,1.1l2.9,32.2l-9.5,0.9L783,83.6l-11.7,1.1l-0.7-7.4l33.1-3L804.5,81.7z"/>
	<path fill="#040C26" d="M821.6,112.6l-9.5,0.9l-3.6-39.6L818,73L821.6,112.6z"/>
	<path fill="#040C26" d="M840.4,96l-3.5,4.7l1,10.4l-9.5,0.9l-3.6-39.6l9.5-0.9l1.6,17.5l2.9-5.3l7.4-13.2l11.8-1.1l-11.8,18.7
		l15.4,20.9l-11.3,1L840.4,96z"/>
	<path fill="#040C26" d="M886.9,89.7l-15,1.4l0.9,9.5l17.7-1.6l0.7,7.3l-27.3,2.5l-3.6-39.6l27.3-2.5l0.7,7.4l-17.8,1.6l0.8,8.4
		l15-1.4L886.9,89.7z"/>
	<path fill="#040C26" d="M903.9,97.7l16.6-1.5l0.7,7.3l-26.2,2.4l-3.6-39.6l9.5-0.9L903.9,97.7z"/>
	<path fill="#040C26" d="M925.3,103.1l-3.6-39.6l14.2-1.3c5.1-0.5,9.1,0.1,11.9,1.7c2.8,1.6,4.4,4.2,4.7,7.8c0.2,2-0.1,3.8-0.9,5.4
		c-0.8,1.5-2.1,2.7-3.9,3.6c2.1,0.4,3.8,1.2,5,2.6c1.2,1.4,2,3.1,2.2,5.3c0.4,3.9-0.6,6.9-2.9,9.1c-2.3,2.2-5.8,3.5-10.6,4
		L925.3,103.1z M932.7,79.2l5-0.5c2.1-0.2,3.5-0.7,4.4-1.6c0.8-0.8,1.2-2,1-3.4c-0.2-1.7-0.7-2.8-1.8-3.5c-1-0.6-2.6-0.9-4.8-0.7
		l-4.7,0.4L932.7,79.2z M933.3,85.4l0.9,9.5l6.3-0.6c1.7-0.2,3-0.7,3.9-1.5c0.9-0.9,1.2-2,1.1-3.5c-0.3-3.3-2.1-4.8-5.4-4.5
		L933.3,85.4z"/>
	<path fill="#040C26" d="M971.4,98.9l-9.5,0.9l-3.6-39.6l9.5-0.9L971.4,98.9z"/>
	<path fill="#040C26" d="M986.9,90.1l16.6-1.5l0.7,7.3L978,98.3l-3.6-39.6l9.5-0.9L986.9,90.1z"/>
	<path fill="#040C26" d="M1008.2,95.6l-3.6-39.6l12.8-1.2c3.5-0.3,6.7,0.2,9.7,1.5c2.9,1.3,5.3,3.4,7.2,6.1c1.8,2.7,2.9,5.9,3.3,9.5
		l0.2,1.8c0.3,3.6-0.1,6.9-1.4,10c-1.3,3-3.2,5.5-5.9,7.3c-2.6,1.9-5.7,3-9.1,3.3L1008.2,95.6z M1014.8,62.5l2.3,24.9l3.3-0.3
		c2.7-0.3,4.8-1.4,6-3.5c1.3-2.1,1.8-5,1.4-8.9l-0.2-1.7c-0.3-3.8-1.3-6.6-3-8.4c-1.6-1.8-3.9-2.6-6.7-2.3L1014.8,62.5z"/>
	<path fill="#040C26" d="M1067.2,73.2l-15,1.4l0.9,9.5l17.7-1.6l0.7,7.3l-27.3,2.5l-3.6-39.6l27.3-2.5l0.7,7.4l-17.8,1.6l0.8,8.3
		l15-1.4L1067.2,73.2z"/>
	<path fill="#040C26" d="M1088.8,74.1l-5.2,0.5l1.3,14l-9.5,0.9l-3.6-39.6l15.6-1.4c4.7-0.4,8.5,0.3,11.3,2.1
		c2.8,1.8,4.4,4.7,4.8,8.5c0.3,2.8-0.1,5.1-1,7s-2.6,3.5-4.8,4.9l9.7,15.2l0,0.4l-10.2,0.9L1088.8,74.1z M1083,67.2l6-0.6
		c1.8-0.2,3.1-0.8,4-1.8c0.8-1,1.2-2.4,1-4.1c-0.2-1.7-0.7-3-1.8-3.9c-1-0.9-2.4-1.3-4.2-1.1l-6,0.6L1083,67.2z"/>
	<path fill="#040C26" d="M1124.3,73.7l-4.4,0.4l-0.8,11.3l-5.4,0.5l0.8-11.3l-6,0.6l-0.5-5l6.9-0.6l0.5-7.3l-6,0.5l-0.5-5l6.8-0.6
		l0.8-11.5l5.4-0.5l-0.8,11.5l4.4-0.4l0.8-11.5l5.4-0.5l-0.8,11.5l6.3-0.6l0.5,5l-7.1,0.6l-0.5,7.3l6.2-0.6l0.5,5l-7,0.6l-0.8,11.3
		l-5.4,0.5L1124.3,73.7z M1120.3,69.1l4.4-0.4l0.5-7.3l-4.4,0.4L1120.3,69.1z"/>
	<path fill="#040C26" d="M-14.8,245.2l-4.4,0.4l-0.8,11.3l-5.4,0.5l0.8-11.3l-6,0.6l-0.5-5l6.9-0.6l0.5-7.3l-6,0.5l-0.5-5l6.8-0.6
		l0.8-11.5l5.4-0.5l-0.8,11.5l4.4-0.4l0.8-11.5l5.4-0.5l-0.8,11.5l6.3-0.6l0.5,5l-7.1,0.6l-0.5,7.3l6.2-0.6l0.5,5l-7,0.6l-0.8,11.3
		l-5.4,0.5L-14.8,245.2z M-18.8,240.5l4.4-0.4l0.5-7.3l-4.4,0.4L-18.8,240.5z"/>
	<path fill="#040C26" d="M5,254.6L1.4,215l14.2-1.3c5.1-0.5,9.1,0.1,11.9,1.7c2.8,1.6,4.4,4.2,4.7,7.8c0.2,2.1-0.1,3.8-0.9,5.4
		c-0.8,1.5-2.1,2.7-3.9,3.6c2.1,0.4,3.8,1.2,5,2.6c1.2,1.4,2,3.1,2.2,5.3c0.4,3.9-0.6,6.9-2.9,9.1c-2.3,2.2-5.8,3.5-10.6,4L5,254.6z
		 M12.4,230.7l5-0.5c2.1-0.2,3.5-0.7,4.4-1.6c0.8-0.8,1.2-2,1-3.4c-0.2-1.7-0.7-2.8-1.8-3.5c-1-0.6-2.6-0.9-4.8-0.7l-4.7,0.4
		L12.4,230.7z M13,236.9l0.9,9.5l6.3-0.6c1.7-0.2,3-0.7,3.9-1.5s1.2-2,1.1-3.5c-0.3-3.3-2.1-4.8-5.4-4.5L13,236.9z"/>
	<path fill="#040C26" d="M51.1,250.4l-9.5,0.9l-3.6-39.6l9.5-0.9L51.1,250.4z"/>
	<path fill="#040C26" d="M66.6,241.6l16.6-1.5l0.7,7.3l-26.2,2.4l-3.6-39.6l9.5-0.9L66.6,241.6z"/>
	<path fill="#040C26" d="M87.9,247l-3.6-39.6l12.8-1.2c3.5-0.3,6.7,0.2,9.7,1.5c2.9,1.3,5.3,3.4,7.2,6.1c1.8,2.7,2.9,5.9,3.3,9.5
		l0.2,1.8c0.3,3.6-0.1,6.9-1.4,10c-1.3,3-3.2,5.5-5.9,7.3c-2.6,1.9-5.7,3-9.1,3.3L87.9,247z M94.5,213.9l2.3,24.9l3.3-0.3
		c2.7-0.2,4.8-1.4,6-3.5c1.3-2.1,1.8-5,1.4-8.9l-0.2-1.7c-0.3-3.8-1.3-6.6-3-8.4c-1.6-1.8-3.9-2.6-6.7-2.3L94.5,213.9z"/>
	<path fill="#040C26" d="M123.9,243.8l-3.6-39.6l14.2-1.3c5.1-0.5,9.1,0.1,11.9,1.7c2.8,1.6,4.4,4.2,4.7,7.8c0.2,2-0.1,3.8-0.9,5.4
		c-0.8,1.5-2.1,2.7-3.9,3.6c2.1,0.4,3.8,1.2,5,2.6c1.2,1.4,2,3.1,2.2,5.3c0.4,3.9-0.6,6.9-2.9,9.1c-2.3,2.2-5.8,3.5-10.6,4
		L123.9,243.8z M131.4,219.8l5-0.5c2.1-0.2,3.5-0.7,4.4-1.6c0.8-0.8,1.2-2,1-3.4c-0.2-1.7-0.7-2.8-1.8-3.5c-1-0.6-2.6-0.9-4.8-0.7
		l-4.7,0.4L131.4,219.8z M131.9,226l0.9,9.5l6.3-0.6c1.7-0.2,3-0.7,3.9-1.5c0.9-0.9,1.2-2,1.1-3.5c-0.3-3.3-2.1-4.8-5.4-4.5
		L131.9,226z"/>
	<path fill="#040C26" d="M182.9,221.4l-15,1.4l0.9,9.5l17.7-1.6l0.7,7.3l-27.3,2.5l-3.6-39.6l27.3-2.5l0.7,7.4l-17.8,1.6l0.8,8.4
		l15-1.4L182.9,221.4z"/>
	<path fill="#040C26" d="M212.8,228.2l-13.1,1.2l-1.6,7.6l-10.2,0.9l10.9-40.9l9-0.8l18.3,38.3l-10.3,0.9L212.8,228.2z M201.4,221.8
		l8.5-0.8l-5.5-13.3L201.4,221.8z"/>
	<path fill="#040C26" d="M242.4,218.8l-5.2,0.5l1.3,14l-9.5,0.9l-3.6-39.6l15.6-1.4c4.7-0.4,8.5,0.3,11.3,2.1s4.4,4.7,4.8,8.5
		c0.3,2.8-0.1,5.1-1,7c-1,1.9-2.6,3.5-4.8,4.9l9.7,15.2l0,0.4l-10.2,0.9L242.4,218.8z M236.6,211.9l6-0.6c1.8-0.2,3.1-0.8,4-1.8
		c0.8-1,1.2-2.4,1-4.1c-0.2-1.7-0.7-3-1.8-3.9c-1-0.9-2.4-1.3-4.2-1.1l-6,0.6L236.6,211.9z"/>
	<path fill="#040C26" d="M265.3,230.8l-3.6-39.6l14.2-1.3c5.1-0.5,9.1,0.1,11.9,1.7c2.8,1.6,4.4,4.2,4.7,7.8c0.2,2-0.1,3.8-0.9,5.4
		c-0.8,1.5-2.1,2.7-3.9,3.6c2.1,0.4,3.8,1.2,5,2.6c1.2,1.4,2,3.1,2.2,5.3c0.4,3.9-0.6,6.9-2.9,9.1c-2.3,2.2-5.8,3.5-10.6,4
		L265.3,230.8z M272.7,206.9l5-0.5c2.1-0.2,3.5-0.7,4.4-1.6c0.8-0.8,1.2-2,1-3.4c-0.2-1.7-0.7-2.8-1.8-3.5c-1-0.6-2.6-0.9-4.8-0.7
		l-4.7,0.4L272.7,206.9z M273.3,213.1l0.9,9.5l6.3-0.6c1.7-0.2,3-0.7,3.9-1.5c0.9-0.9,1.2-2,1.1-3.5c-0.3-3.3-2.1-4.8-5.4-4.5
		L273.3,213.1z"/>
	<path fill="#040C26" d="M324.3,208.5l-15,1.4l0.9,9.5l17.7-1.6l0.7,7.3l-27.3,2.5l-3.6-39.6l27.3-2.5l0.7,7.4l-17.8,1.6l0.8,8.4
		l15-1.4L324.3,208.5z"/>
	<path fill="#040C26" d="M342.6,223.8l-9.5,0.9l-3.6-39.6l9.5-0.9L342.6,223.8z"/>
	<path fill="#040C26" d="M376.6,188.2l-11.9,1.1l2.9,32.2l-9.5,0.9l-2.9-32.2l-11.7,1.1l-0.7-7.4l33.1-3L376.6,188.2z"/>
	<path fill="#040C26" d="M411,177.6l2.4,25.9c0.3,2.9-0.1,5.5-1.2,7.8c-1.1,2.3-2.7,4.1-4.9,5.4c-2.2,1.3-5,2.2-8.1,2.4
		c-4.8,0.4-8.7-0.5-11.7-2.7c-3-2.2-4.7-5.5-5.2-9.9l-2.4-26.1l9.6-0.9l2.4,26.3c0.5,4.3,2.7,6.3,6.6,5.9c2-0.2,3.4-0.9,4.3-2
		s1.3-3,1-5.4l-2.4-25.9L411,177.6z"/>
	<path fill="#040C26" d="M453.6,213.6l-9.5,0.9l-16.3-23.4l2.3,24.6l-9.5,0.9l-3.6-39.6l9.5-0.9l16.3,23.4l-2.3-24.6l9.5-0.9
		L453.6,213.6z"/>
	<path fill="#040C26" d="M491.7,205.2c-1.3,1.8-3.3,3.3-6.1,4.5c-2.7,1.3-5.8,2-9.2,2.3c-5.2,0.5-9.5-0.7-12.9-3.6
		c-3.4-2.9-5.5-7.2-6.2-12.8l-0.3-3.4c-0.4-3.9,0-7.4,1.1-10.4c1.1-3,2.9-5.5,5.3-7.3c2.4-1.8,5.3-2.9,8.7-3.2
		c4.9-0.5,8.9,0.3,11.8,2.3c2.9,2,4.8,5.2,5.7,9.7l-9.2,0.8c-0.5-2.2-1.4-3.7-2.6-4.5c-1.2-0.8-2.8-1.2-4.8-1
		c-2.4,0.2-4.2,1.4-5.3,3.6c-1.1,2.1-1.5,5.1-1.2,8.9l0.2,2.4c0.4,4,1.3,6.9,2.8,8.7c1.5,1.9,3.7,2.7,6.7,2.4
		c2.5-0.2,4.3-0.9,5.4-2.2l-0.6-6.1l-6.6,0.6l-0.6-6.6l16.2-1.5L491.7,205.2z"/>
	<path fill="#040C26" d="M510.3,197.2l-4.4,0.4l-0.8,11.3l-5.4,0.5l0.8-11.3l-6,0.6l-0.5-5l6.9-0.6l0.5-7.3l-6,0.5l-0.5-5l6.8-0.6
		l0.8-11.5l5.4-0.5l-0.8,11.5l4.4-0.4l0.8-11.5l5.4-0.5l-0.8,11.5l6.3-0.6l0.5,5l-7.1,0.6l-0.5,7.3l6.2-0.6l0.5,5l-7,0.6l-0.8,11.3
		l-5.4,0.5L510.3,197.2z M506.3,192.6l4.4-0.4l0.5-7.3l-4.4,0.4L506.3,192.6z"/>
	<path fill="#040C26" d="M540.2,205.7l-9.5,0.9l-3.6-39.6l9.5-0.9L540.2,205.7z"/>
	<path fill="#040C26" d="M579.9,202.1l-9.5,0.9l-16.3-23.4l2.3,24.6l-9.5,0.9l-3.6-39.6l9.5-0.9L569,188l-2.3-24.6l9.5-0.9
		L579.9,202.1z"/>
	<path fill="#040C26" d="M585.9,201.5l-3.6-39.6l12.8-1.2c3.5-0.3,6.7,0.2,9.7,1.5c2.9,1.3,5.3,3.4,7.2,6.1c1.8,2.7,2.9,5.9,3.3,9.5
		l0.2,1.8c0.3,3.6-0.1,6.9-1.4,10c-1.3,3-3.2,5.5-5.9,7.3s-5.7,3-9.1,3.3L585.9,201.5z M592.5,168.4l2.3,24.9l3.3-0.3
		c2.7-0.3,4.8-1.4,6-3.5c1.3-2.1,1.8-5,1.4-8.9l-0.2-1.7c-0.3-3.8-1.3-6.6-3-8.4c-1.6-1.8-3.9-2.6-6.7-2.3L592.5,168.4z"/>
	<path fill="#040C26" d="M645,179.2l-15,1.4l0.9,9.5l17.7-1.6l0.7,7.3l-27.3,2.5l-3.6-39.6l27.3-2.5l0.7,7.4l-17.8,1.6l0.8,8.4
		l15-1.4L645,179.2z"/>
	<path fill="#040C26" d="M672.6,183c-0.1-1.4-0.7-2.4-1.8-3.1c-1.1-0.7-2.9-1.3-5.4-1.9c-2.6-0.6-4.7-1.2-6.3-1.9
		c-5.4-2.1-8.2-5.3-8.6-9.7c-0.2-2.2,0.3-4.2,1.4-6c1.1-1.8,2.8-3.3,5.1-4.4c2.3-1.1,4.8-1.9,7.8-2.1c2.8-0.3,5.4,0,7.8,0.8
		c2.4,0.8,4.2,2.1,5.7,3.9c1.4,1.8,2.2,3.8,2.5,6.3l-9.5,0.9c-0.1-1.6-0.8-2.8-1.8-3.6c-1.1-0.8-2.4-1.1-4.1-1
		c-1.7,0.2-3,0.7-3.9,1.5c-0.9,0.8-1.3,1.8-1.2,3c0.1,1,0.7,1.9,1.9,2.6c1.2,0.7,3.2,1.4,6,2c2.8,0.6,5.2,1.4,7,2.2
		c4.5,2.1,7,5.3,7.4,9.6c0.3,3.5-0.7,6.3-3.2,8.5s-5.9,3.5-10.5,3.9c-3.2,0.3-6.2,0-8.9-0.9c-2.7-0.9-4.8-2.3-6.3-4.2
		c-1.5-1.9-2.4-4.1-2.6-6.7l9.6-0.9c0.2,2.1,0.9,3.6,2.1,4.5c1.2,0.9,3,1.2,5.5,1c1.6-0.1,2.8-0.6,3.6-1.4
		C672.3,185.2,672.7,184.3,672.6,183z"/>
	<path fill="#040C26" d="M698.2,191.3l-9.5,0.9l-3.6-39.6l9.5-0.9L698.2,191.3z"/>
	<path fill="#040C26" d="M736.8,182.8c-1.3,1.8-3.3,3.3-6.1,4.5c-2.7,1.3-5.8,2-9.2,2.3c-5.2,0.5-9.5-0.7-12.9-3.6
		c-3.4-2.9-5.5-7.2-6.2-12.8l-0.3-3.4c-0.4-3.9,0-7.4,1.1-10.4c1.1-3,2.9-5.5,5.3-7.3c2.4-1.8,5.3-2.9,8.7-3.2
		c4.9-0.5,8.9,0.3,11.8,2.3c2.9,2,4.8,5.2,5.7,9.7l-9.2,0.8c-0.5-2.2-1.4-3.7-2.6-4.5c-1.2-0.8-2.8-1.2-4.8-1
		c-2.4,0.2-4.2,1.4-5.3,3.6s-1.5,5.1-1.2,8.9l0.2,2.4c0.4,4,1.3,6.9,2.8,8.7c1.5,1.9,3.7,2.7,6.7,2.4c2.5-0.2,4.3-0.9,5.4-2.2
		l-0.6-6.1l-6.6,0.6l-0.6-6.6l16.2-1.5L736.8,182.8z"/>
	<path fill="#040C26" d="M775.9,184.2l-9.5,0.9l-16.3-23.4l2.3,24.6l-9.5,0.9l-3.6-39.6l9.5-0.9l16.3,23.4l-2.3-24.6l9.5-0.9
		L775.9,184.2z"/>
	<path fill="#040C26" d="M794.5,171.2l-4.4,0.4l-0.8,11.3l-5.4,0.5l0.8-11.3l-6,0.6l-0.5-5l6.9-0.6l0.5-7.3l-6,0.5l-0.5-5l6.8-0.6
		l0.8-11.5l5.4-0.5l-0.8,11.5l4.4-0.4l0.8-11.5l5.4-0.5l-0.8,11.5l6.3-0.6l0.5,5l-7.1,0.6l-0.5,7.3l6.2-0.6l0.5,5l-7,0.6l-0.8,11.3
		l-5.4,0.5L794.5,171.2z M790.5,166.6l4.4-0.4l0.5-7.3l-4.4,0.4L790.5,166.6z"/>
	<path fill="#040C26" d="M822.6,166.4l1.2,13.4l-9.5,0.9l-3.6-39.6l15.8-1.4c3-0.3,5.8,0,8.2,0.9c2.4,0.9,4.4,2.3,5.8,4.3
		c1.5,1.9,2.3,4.2,2.6,6.8c0.4,3.9-0.7,7.1-3.3,9.6c-2.6,2.6-6.2,4.1-11.1,4.5L822.6,166.4z M821.9,159l6.3-0.6
		c1.8-0.2,3.2-0.8,4.1-1.8c0.9-1,1.3-2.4,1.1-4.1c-0.2-1.8-0.8-3.3-1.9-4.3c-1.1-1-2.5-1.5-4.2-1.3l-6.4,0.6L821.9,159z"/>
	<path fill="#040C26" d="M883.6,174.4l-9.5,0.9l-1.5-16.5l-14.1,1.3l1.5,16.5l-9.5,0.9l-3.6-39.6l9.5-0.9l1.4,15.7l14.1-1.3
		l-1.4-15.7l9.5-0.9L883.6,174.4z"/>
	<path fill="#040C26" d="M921.5,151.8c0.4,3.9-0.1,7.3-1.2,10.5c-1.2,3.1-3,5.6-5.5,7.4c-2.5,1.8-5.4,2.9-8.8,3.2
		c-3.4,0.3-6.4-0.2-9.2-1.5c-2.8-1.3-5-3.3-6.7-6.1c-1.7-2.8-2.8-6-3.2-9.7l-0.2-2.2c-0.4-3.9,0-7.4,1.2-10.5c1.2-3.1,3-5.6,5.5-7.4
		s5.5-2.9,8.9-3.2c3.4-0.3,6.4,0.2,9.2,1.6c2.8,1.4,5,3.4,6.8,6.3c1.7,2.8,2.8,6.1,3.1,9.9L921.5,151.8z M911.6,151
		c-0.4-3.9-1.3-6.9-2.8-8.8s-3.5-2.8-5.9-2.5c-4.8,0.4-7,4.3-6.6,11.5l0.2,2.9c0.4,3.9,1.3,6.8,2.7,8.8c1.5,2,3.5,2.8,6,2.6
		c2.4-0.2,4.2-1.4,5.3-3.6s1.5-5.2,1.2-9L911.6,151z"/>
	<path fill="#040C26" d="M954,135.4l-11.9,1.1l2.9,32.2l-9.5,0.9l-2.9-32.2l-11.7,1.1l-0.7-7.4l33.1-3L954,135.4z"/>
	<path fill="#040C26" d="M992,145.3c0.4,3.9-0.1,7.3-1.2,10.5c-1.2,3.1-3,5.6-5.5,7.4c-2.5,1.8-5.4,2.9-8.8,3.2s-6.4-0.2-9.2-1.5
		c-2.8-1.3-5-3.3-6.7-6.1c-1.7-2.8-2.8-6-3.2-9.7l-0.2-2.2c-0.4-3.9,0-7.4,1.2-10.5c1.2-3.1,3-5.6,5.5-7.4c2.5-1.9,5.5-2.9,8.9-3.2
		c3.4-0.3,6.4,0.2,9.2,1.6c2.8,1.4,5,3.4,6.8,6.3c1.7,2.8,2.8,6.1,3.1,9.9L992,145.3z M982.1,144.5c-0.4-3.9-1.3-6.9-2.8-8.8
		c-1.5-1.9-3.5-2.8-5.9-2.5c-4.8,0.4-7,4.3-6.6,11.5l0.2,2.9c0.4,3.9,1.3,6.8,2.8,8.8c1.5,2,3.5,2.8,6,2.6c2.4-0.2,4.2-1.4,5.3-3.6
		s1.5-5.2,1.2-9L982.1,144.5z"/>
	<path fill="#040C26" d="M1018.1,151.5c-0.1-1.4-0.7-2.4-1.8-3.1c-1.1-0.7-2.9-1.3-5.4-1.9c-2.6-0.6-4.7-1.2-6.3-1.9
		c-5.4-2.1-8.2-5.3-8.6-9.7c-0.2-2.2,0.3-4.2,1.4-6c1.1-1.8,2.8-3.3,5.1-4.4c2.3-1.1,4.8-1.9,7.8-2.1c2.8-0.3,5.4,0,7.8,0.8
		c2.4,0.8,4.2,2.1,5.7,3.9s2.2,3.8,2.5,6.3l-9.5,0.9c-0.1-1.6-0.8-2.8-1.8-3.6c-1.1-0.8-2.4-1.1-4.1-1c-1.7,0.2-3,0.7-3.9,1.5
		c-0.9,0.8-1.3,1.8-1.2,3c0.1,1,0.7,1.9,1.9,2.6c1.2,0.7,3.2,1.4,6,2c2.8,0.6,5.2,1.4,7,2.2c4.5,2.1,7,5.3,7.4,9.6
		c0.3,3.5-0.7,6.3-3.2,8.5c-2.4,2.2-5.9,3.5-10.5,3.9c-3.2,0.3-6.2,0-8.9-0.9c-2.7-0.9-4.8-2.3-6.3-4.2c-1.5-1.9-2.4-4.1-2.6-6.7
		l9.6-0.9c0.2,2.1,0.9,3.6,2.1,4.5c1.2,0.9,3,1.2,5.5,1c1.6-0.1,2.8-0.6,3.6-1.4C1017.8,153.7,1018.2,152.7,1018.1,151.5z"/>
	<path fill="#040C26" d="M1066.6,157.6l-9.5,0.9l-1.5-16.5l-14.1,1.3l1.5,16.5l-9.5,0.9l-3.6-39.6l9.5-0.9l1.4,15.7l14.1-1.3
		l-1.4-15.7l9.5-0.9L1066.6,157.6z"/>
	<path fill="#040C26" d="M1104.4,135c0.4,3.9-0.1,7.3-1.2,10.5c-1.2,3.1-3,5.6-5.5,7.4c-2.5,1.8-5.4,2.9-8.8,3.2
		c-3.4,0.3-6.4-0.2-9.2-1.5c-2.8-1.3-5-3.3-6.7-6.1c-1.7-2.8-2.8-6-3.2-9.7l-0.2-2.2c-0.4-3.9,0-7.4,1.2-10.5c1.2-3.1,3-5.6,5.5-7.4
		c2.5-1.9,5.5-2.9,8.9-3.2c3.4-0.3,6.4,0.2,9.2,1.6c2.8,1.4,5,3.4,6.8,6.3c1.7,2.8,2.8,6.1,3.1,9.9L1104.4,135z M1094.6,134.3
		c-0.4-3.9-1.3-6.9-2.8-8.8c-1.5-1.9-3.5-2.8-5.9-2.5c-4.8,0.4-7,4.3-6.6,11.5l0.2,2.9c0.4,3.9,1.3,6.8,2.8,8.8c1.5,2,3.5,2.8,6,2.6
		c2.4-0.2,4.2-1.4,5.3-3.6c1.1-2.2,1.5-5.2,1.2-9L1094.6,134.3z"/>
	<path fill="#040C26" d="M1119.4,139.3l1.2,13.4l-9.5,0.9l-3.6-39.6l15.8-1.4c3-0.3,5.8,0,8.2,0.9c2.4,0.9,4.4,2.3,5.8,4.3
		c1.5,1.9,2.3,4.2,2.6,6.8c0.4,3.9-0.7,7.1-3.3,9.6c-2.6,2.6-6.2,4.1-11.1,4.5L1119.4,139.3z M1118.7,131.9l6.3-0.6
		c1.8-0.2,3.2-0.8,4.1-1.8c0.9-1,1.3-2.4,1.1-4c-0.2-1.8-0.8-3.3-1.9-4.3c-1.1-1-2.5-1.5-4.2-1.3l-6.4,0.6L1118.7,131.9z"/>
	<path fill="#040C26" d="M1160,137.9l-4.4,0.4l-0.8,11.3l-5.4,0.5l0.8-11.3l-6,0.6l-0.5-5l6.9-0.6l0.5-7.3l-6,0.5l-0.5-5l6.8-0.6
		l0.8-11.5l5.4-0.5l-0.8,11.5l4.4-0.4l0.8-11.5l5.4-0.5l-0.8,11.5l6.3-0.6l0.5,5l-7.1,0.6l-0.5,7.3l6.2-0.6l0.5,5l-7,0.6l-0.8,11.3
		l-5.4,0.5L1160,137.9z M1156,133.2l4.4-0.4l0.5-7.3l-4.4,0.4L1156,133.2z"/>
	<path fill="#040C26" d="M8,306.9l2.3-25.2l9.5-0.9L15,321.1L5.1,322l-7.4-22.1L-5.4,323l-9.9,0.9L-27.3,285l9.5-0.9l6.8,24.4
		l3.2-25.3l8.1-0.7L8,306.9z"/>
	<path fill="#040C26" d="M50.2,300.9l-15,1.4l0.9,9.5l17.7-1.6l0.7,7.3L27.1,320l-3.6-39.6l27.3-2.5l0.7,7.4l-17.8,1.6l0.8,8.3
		l15-1.4L50.2,300.9z"/>
	<path fill="#040C26" d="M71.7,301.8l-5.2,0.5l1.3,14l-9.5,0.9l-3.6-39.6l15.6-1.4c4.7-0.4,8.5,0.3,11.3,2.1s4.4,4.7,4.8,8.5
		c0.3,2.8-0.1,5.1-1,7c-0.9,1.9-2.6,3.5-4.8,4.9l9.7,15.2l0,0.4L80,315.2L71.7,301.8z M65.9,294.9l6-0.6c1.8-0.2,3.1-0.8,4-1.8
		c0.8-1,1.2-2.4,1-4.1c-0.2-1.7-0.7-3-1.8-3.9c-1-0.9-2.4-1.3-4.2-1.1l-6,0.6L65.9,294.9z"/>
	<path fill="#040C26" d="M94.6,313.8L91,274.2l14.2-1.3c5.1-0.5,9.1,0.1,11.9,1.7c2.8,1.6,4.4,4.2,4.7,7.8c0.2,2-0.1,3.8-0.9,5.4
		c-0.8,1.5-2.1,2.7-3.9,3.6c2.1,0.4,3.8,1.2,5,2.6c1.2,1.4,2,3.1,2.2,5.3c0.4,3.9-0.6,6.9-2.9,9.1c-2.3,2.2-5.8,3.5-10.6,4
		L94.6,313.8z M102.1,289.9l5-0.5c2.1-0.2,3.5-0.7,4.4-1.6c0.8-0.8,1.2-2,1-3.4c-0.2-1.7-0.7-2.8-1.8-3.5c-1-0.6-2.6-0.9-4.8-0.7
		l-4.7,0.4L102.1,289.9z M102.6,296.1l0.9,9.5l6.3-0.6c1.7-0.2,3-0.7,3.9-1.5c0.9-0.9,1.2-2,1.1-3.5c-0.3-3.3-2.1-4.8-5.4-4.5
		L102.6,296.1z"/>
	<path fill="#040C26" d="M153.6,291.5l-15,1.4l0.9,9.5l17.7-1.6l0.7,7.3l-27.3,2.5l-3.6-39.6l27.3-2.5l0.7,7.4l-17.8,1.6l0.8,8.4
		l15-1.4L153.6,291.5z"/>
	<path fill="#040C26" d="M190.4,272.6l-11.9,1.1l2.9,32.2l-9.5,0.9l-2.9-32.2l-11.7,1.1l-0.7-7.4l33.1-3L190.4,272.6z"/>
	<path fill="#040C26" d="M220.4,285.4l-15,1.4l0.9,9.5l17.7-1.6l0.7,7.3l-27.3,2.5l-3.6-39.6l27.3-2.5l0.7,7.4l-17.8,1.6l0.8,8.3
		l15-1.4L220.4,285.4z"/>
	<path fill="#040C26" d="M259.4,285.3c0.1,2.8-0.4,5.3-1.6,7.5s-2.9,4-5.3,5.4c-2.4,1.4-5.1,2.2-8.3,2.5c-5.2,0.5-9.5-0.8-12.8-4
		c-3.3-3.1-5.2-7.8-5.8-14l-0.2-2c-0.4-3.9,0-7.3,1.1-10.4c1.1-3,2.8-5.5,5.2-7.3c2.4-1.8,5.3-2.9,8.6-3.2c4.8-0.4,8.8,0.5,11.9,2.7
		c3.2,2.3,5.1,5.6,5.9,10l-9.5,0.9c-0.3-2.4-1.1-4.1-2.3-5c-1.2-0.9-3-1.3-5.4-1.1c-2.4,0.2-4,1.3-5,3.1c-0.9,1.9-1.3,4.8-1,8.7
		l0.3,2.8c0.4,4.2,1.2,7.2,2.4,8.9c1.2,1.7,3.1,2.5,5.7,2.2c2.2-0.2,3.8-0.9,4.9-2s1.5-2.8,1.4-5.1L259.4,285.3z"/>
	<path fill="#040C26" d="M298.2,295.2l-9.5,0.9l-1.5-16.5l-14.1,1.3l1.5,16.5l-9.5,0.9l-3.6-39.6l9.5-0.9l1.4,15.7l14.1-1.3
		l-1.4-15.7l9.5-0.9L298.2,295.2z"/>
	<path fill="#040C26" d="M337.3,291.7l-9.5,0.9l-16.3-23.4l2.3,24.6l-9.5,0.9l-3.6-39.6l9.5-0.9l16.3,23.4l-2.3-24.6l9.5-0.9
		L337.3,291.7z"/>
	<path fill="#040C26" d="M353.6,290.2l-9.5,0.9l-3.6-39.6l9.5-0.9L353.6,290.2z"/>
	<path fill="#040C26" d="M372.3,273.6l-3.5,4.7l1,10.4l-9.5,0.9l-3.6-39.6l9.5-0.9l1.6,17.5l2.9-5.3L378,248l11.8-1.1L378,265.7
		l15.4,20.9l-11.3,1L372.3,273.6z"/>
	<path fill="#040C26" d="M408.5,273.9l-4.4,0.4l-0.8,11.3l-5.4,0.5l0.8-11.3l-6,0.6l-0.5-5l6.9-0.6l0.5-7.3l-6,0.5l-0.5-5l6.8-0.6
		l0.8-11.5l5.4-0.5l-0.8,11.5l4.4-0.4l0.8-11.5l5.4-0.5l-0.8,11.5l6.3-0.6l0.5,5l-7.1,0.6l-0.5,7.3l6.2-0.6l0.5,5l-7,0.6l-0.8,11.3
		l-5.4,0.5L408.5,273.9z M404.4,269.3l4.4-0.4l0.5-7.3L405,262L404.4,269.3z"/>
	<path fill="#040C26" d="M437.1,275.1l16.6-1.5l0.7,7.3l-26.2,2.4l-3.6-39.6l9.5-0.9L437.1,275.1z"/>
	<path fill="#040C26" d="M480.7,271.1l-13.1,1.2l-1.6,7.6l-10.2,0.9l10.9-40.9l9-0.8l18.3,38.3l-10.3,0.9L480.7,271.1z M469.3,264.7
		l8.5-0.8l-5.5-13.3L469.3,264.7z"/>
	<path fill="#040C26" d="M516.3,264.7c-0.1-1.4-0.7-2.4-1.8-3.1c-1.1-0.7-2.9-1.3-5.4-1.9c-2.6-0.6-4.7-1.2-6.3-1.9
		c-5.4-2.1-8.2-5.3-8.6-9.7c-0.2-2.2,0.3-4.2,1.4-6c1.1-1.8,2.8-3.3,5.1-4.4c2.3-1.1,4.8-1.9,7.8-2.1c2.8-0.3,5.4,0,7.8,0.8
		c2.4,0.8,4.2,2.1,5.7,3.9c1.4,1.8,2.2,3.9,2.5,6.3l-9.5,0.9c-0.1-1.6-0.8-2.8-1.8-3.6c-1.1-0.8-2.4-1.1-4.1-1
		c-1.7,0.2-3,0.7-3.9,1.5c-0.9,0.8-1.3,1.8-1.2,3c0.1,1,0.7,1.9,1.9,2.6c1.2,0.7,3.2,1.4,6,2c2.8,0.6,5.2,1.4,7,2.2
		c4.5,2.1,7,5.3,7.4,9.6c0.3,3.5-0.7,6.3-3.2,8.5c-2.4,2.2-5.9,3.5-10.5,3.9c-3.2,0.3-6.2,0-8.9-0.9c-2.7-0.9-4.8-2.3-6.3-4.2
		c-1.5-1.9-2.4-4.1-2.6-6.7l9.6-0.9c0.2,2.1,0.9,3.6,2.1,4.5c1.2,0.9,3,1.2,5.5,1c1.6-0.1,2.8-0.6,3.6-1.4
		C516.1,266.9,516.4,265.9,516.3,264.7z"/>
	<path fill="#040C26" d="M554.7,254.9l-15,1.4l0.9,9.5l17.7-1.6l0.7,7.3l-27.3,2.5l-3.6-39.6l27.3-2.5l0.7,7.4l-17.8,1.6l0.8,8.4
		l15-1.4L554.7,254.9z"/>
	<path fill="#040C26" d="M576.3,255.7l-5.2,0.5l1.3,14l-9.5,0.9l-3.6-39.6l15.6-1.4c4.7-0.4,8.5,0.3,11.3,2.1
		c2.8,1.8,4.4,4.7,4.8,8.5c0.3,2.8-0.1,5.1-1,7c-0.9,1.9-2.6,3.5-4.8,4.9l9.7,15.2l0,0.4l-10.2,0.9L576.3,255.7z M570.5,248.8l6-0.6
		c1.8-0.2,3.1-0.8,4-1.8c0.8-1,1.2-2.4,1-4.1c-0.2-1.7-0.7-3-1.8-3.9c-1-0.9-2.4-1.3-4.2-1.1l-6,0.6L570.5,248.8z"/>
	<path fill="#040C26" d="M611.9,255.3l-4.4,0.4l-0.8,11.3l-5.4,0.5l0.8-11.3l-6,0.6l-0.5-5l6.9-0.6l0.5-7.3l-6,0.5l-0.5-5l6.8-0.6
		l0.8-11.5l5.4-0.5l-0.8,11.5l4.4-0.4l0.8-11.5l5.4-0.5l-0.8,11.5l6.3-0.6l0.5,5l-7.1,0.6l-0.5,7.3l6.2-0.6l0.5,5l-7,0.6l-0.8,11.3
		l-5.4,0.5L611.9,255.3z M607.8,250.7l4.4-0.4l0.5-7.3l-4.4,0.4L607.8,250.7z"/>
	<path fill="#040C26" d="M631.6,264.8l-3.6-39.6l12.8-1.2c3.5-0.3,6.7,0.2,9.7,1.5c2.9,1.3,5.3,3.4,7.2,6.1c1.8,2.7,2.9,5.9,3.3,9.5
		l0.2,1.8c0.3,3.6-0.1,6.9-1.4,10c-1.3,3-3.2,5.5-5.9,7.3c-2.6,1.9-5.7,3-9.1,3.3L631.6,264.8z M638.2,231.7l2.3,24.9l3.3-0.3
		c2.7-0.3,4.8-1.4,6-3.5c1.3-2.1,1.8-5,1.4-8.9l-0.2-1.7c-0.3-3.8-1.3-6.6-3-8.4c-1.6-1.8-3.9-2.6-6.7-2.3L638.2,231.7z"/>
	<path fill="#040C26" d="M677.8,260.6l-9.5,0.9l-3.6-39.6l9.5-0.9L677.8,260.6z"/>
	<path fill="#040C26" d="M716.4,252.1c-1.3,1.8-3.3,3.3-6.1,4.5c-2.7,1.3-5.8,2-9.2,2.3c-5.2,0.5-9.5-0.7-12.9-3.6
		c-3.4-2.9-5.5-7.2-6.2-12.8l-0.3-3.4c-0.4-3.9,0-7.4,1.1-10.4c1.1-3,2.9-5.5,5.3-7.3c2.4-1.8,5.3-2.9,8.7-3.2
		c4.9-0.5,8.9,0.3,11.8,2.3c2.9,2,4.8,5.2,5.7,9.7l-9.2,0.8c-0.5-2.2-1.4-3.7-2.6-4.5c-1.2-0.8-2.8-1.2-4.8-1
		c-2.4,0.2-4.2,1.4-5.3,3.6c-1.1,2.2-1.5,5.1-1.2,8.9l0.2,2.4c0.4,4,1.3,6.9,2.8,8.7c1.5,1.9,3.7,2.7,6.7,2.4
		c2.5-0.2,4.3-0.9,5.4-2.2l-0.6-6.1l-6.6,0.6l-0.6-6.6l16.2-1.5L716.4,252.1z"/>
	<path fill="#040C26" d="M732.6,255.6l-9.5,0.9l-3.6-39.6l9.5-0.9L732.6,255.6z"/>
	<path fill="#040C26" d="M766.6,220l-11.9,1.1l2.9,32.2l-9.5,0.9l-2.9-32.2l-11.7,1.1l-0.7-7.4l33.1-3L766.6,220z"/>
	<path fill="#040C26" d="M792.1,242.7l-13.1,1.2l-1.6,7.6l-10.2,0.9l10.9-40.9l9-0.8l18.3,38.3l-10.3,0.9L792.1,242.7z M780.6,236.3
		l8.5-0.8l-5.5-13.3L780.6,236.3z"/>
	<path fill="#040C26" d="M817.1,240.4l16.6-1.5l0.7,7.3l-26.2,2.4l-3.6-39.6l9.5-0.9L817.1,240.4z"/>
	<path fill="#040C26" d="M838.4,245.9l-3.6-39.6l12.8-1.2c3.5-0.3,6.7,0.2,9.7,1.5c2.9,1.3,5.3,3.4,7.2,6.1c1.8,2.7,2.9,5.9,3.3,9.5
		l0.2,1.8c0.3,3.6-0.1,6.9-1.4,10c-1.3,3-3.2,5.5-5.9,7.3c-2.6,1.9-5.7,3-9.1,3.3L838.4,245.9z M845,212.8l2.3,24.9l3.3-0.3
		c2.7-0.3,4.8-1.4,6-3.5c1.3-2.1,1.8-5,1.4-8.9l-0.2-1.7c-0.3-3.8-1.3-6.6-3-8.4c-1.6-1.8-3.9-2.6-6.7-2.3L845,212.8z"/>
	<path fill="#040C26" d="M887.8,227.2l-5.2,0.5l1.3,14l-9.5,0.9l-3.6-39.6l15.6-1.4c4.7-0.4,8.5,0.3,11.3,2.1
		c2.8,1.8,4.4,4.7,4.8,8.5c0.3,2.8-0.1,5.1-1,7c-0.9,1.9-2.6,3.5-4.8,4.9l9.7,15.2l0,0.4l-10.2,0.9L887.8,227.2z M882,220.4l6-0.6
		c1.8-0.2,3.1-0.8,4-1.8c0.8-1,1.2-2.4,1-4.1c-0.2-1.7-0.7-3-1.8-3.9c-1-0.9-2.4-1.3-4.2-1.1l-6,0.6L882,220.4z"/>
	<path fill="#040C26" d="M938.2,196.8l2.4,25.9c0.3,2.9-0.1,5.5-1.2,7.8c-1.1,2.3-2.7,4.1-4.9,5.4c-2.2,1.3-4.9,2.2-8.1,2.4
		c-4.8,0.4-8.7-0.5-11.7-2.7c-3-2.2-4.7-5.5-5.2-9.9l-2.4-26.1l9.6-0.9l2.4,26.3c0.5,4.3,2.7,6.3,6.6,5.9c2-0.2,3.4-0.9,4.3-2
		c0.9-1.2,1.3-3,1-5.4l-2.4-25.9L938.2,196.8z"/>
	<path fill="#040C26" d="M978.6,219.6c0.1,2.8-0.4,5.3-1.6,7.5c-1.2,2.2-2.9,4-5.3,5.4c-2.4,1.4-5.1,2.2-8.3,2.5
		c-5.2,0.5-9.5-0.8-12.8-4c-3.3-3.1-5.2-7.8-5.8-14l-0.2-2c-0.4-3.9,0-7.3,1.1-10.4c1.1-3,2.8-5.5,5.2-7.3c2.4-1.8,5.3-2.9,8.6-3.2
		c4.8-0.4,8.8,0.5,11.9,2.7c3.2,2.3,5.1,5.6,5.9,10l-9.5,0.9c-0.3-2.4-1.1-4.1-2.3-5c-1.2-0.9-3-1.3-5.4-1.1c-2.4,0.2-4,1.3-5,3.1
		c-0.9,1.9-1.3,4.8-1,8.7l0.3,2.8c0.4,4.2,1.2,7.2,2.4,8.9c1.2,1.7,3.1,2.5,5.7,2.2c2.2-0.2,3.8-0.9,4.9-2c1.1-1.1,1.5-2.8,1.4-5.1
		L978.6,219.6z"/>
	<path fill="#040C26" d="M996.4,216.6l-3.5,4.7l1,10.4l-9.5,0.9l-3.6-39.6l9.5-0.9l1.6,17.5l2.9-5.3l7.4-13.2l11.8-1.1l-11.8,18.7
		l15.4,20.9l-11.3,1L996.4,216.6z"/>
	<path fill="#040C26" d="M1032.6,216.9l-4.4,0.4l-0.8,11.3l-5.4,0.5l0.8-11.3l-6,0.6l-0.5-5l6.9-0.6l0.5-7.3l-6,0.5l-0.5-5l6.8-0.6
		l0.8-11.5l5.4-0.5l-0.8,11.5l4.4-0.4l0.8-11.5l5.4-0.5l-0.8,11.5l6.3-0.6l0.5,5l-7.1,0.6l-0.5,7.3l6.2-0.6l0.5,5l-7,0.6l-0.8,11.3
		l-5.4,0.5L1032.6,216.9z M1028.6,212.3l4.4-0.4l0.5-7.3l-4.4,0.4L1028.6,212.3z"/>
	<path fill="#040C26" d="M-2.5,378.9l-4.4,0.4l-0.8,11.3l-5.4,0.5l0.8-11.3l-6,0.6l-0.5-5l6.9-0.6l0.5-7.3l-6,0.5l-0.5-5l6.8-0.6
		l0.8-11.5l5.4-0.5l-0.8,11.5l4.4-0.4l0.8-11.5l5.4-0.5L4.1,361l6.3-0.6l0.5,5L3.8,366l-0.5,7.3l6.2-0.6l0.5,5l-7,0.6l-0.8,11.3
		l-5.4,0.5L-2.5,378.9z M-6.6,374.2l4.4-0.4l0.5-7.3l-4.4,0.4L-6.6,374.2z"/>
	<path fill="#040C26" d="M27.4,387.4l-9.5,0.9l-3.6-39.6l9.5-0.9L27.4,387.4z"/>
	<path fill="#040C26" d="M42.9,378.6l16.6-1.5l0.7,7.3L34,386.8l-3.6-39.6l9.5-0.9L42.9,378.6z"/>
	<path fill="#040C26" d="M73.1,375.8l16.6-1.5l0.7,7.3L64.2,384l-3.6-39.6l9.5-0.9L73.1,375.8z"/>
	<path fill="#040C26" d="M121.2,338.9l2.4,25.9c0.3,2.9-0.1,5.5-1.2,7.8c-1.1,2.3-2.7,4.1-4.9,5.4c-2.2,1.3-5,2.2-8.1,2.4
		c-4.8,0.4-8.7-0.5-11.7-2.7c-3-2.2-4.7-5.5-5.2-9.9L90,341.7l9.6-0.9l2.4,26.3c0.5,4.3,2.7,6.3,6.6,5.9c2-0.2,3.4-0.9,4.3-2
		c0.9-1.2,1.3-3,1-5.4l-2.4-25.9L121.2,338.9z"/>
	<path fill="#040C26" d="M150.2,365.5c-0.1-1.4-0.7-2.4-1.8-3.1c-1.1-0.7-2.9-1.3-5.4-1.9c-2.6-0.6-4.7-1.2-6.3-1.9
		c-5.4-2.1-8.2-5.3-8.6-9.7c-0.2-2.2,0.3-4.2,1.4-6c1.1-1.8,2.8-3.3,5.1-4.4s4.8-1.9,7.8-2.1c2.8-0.3,5.4,0,7.8,0.8
		c2.4,0.8,4.2,2.1,5.7,3.9c1.4,1.8,2.2,3.8,2.5,6.3l-9.5,0.9c-0.1-1.6-0.8-2.8-1.8-3.6c-1.1-0.8-2.4-1.1-4.1-1
		c-1.7,0.2-3,0.7-3.9,1.5c-0.9,0.8-1.3,1.8-1.2,3c0.1,1,0.7,1.9,1.9,2.6c1.2,0.7,3.2,1.4,6,2c2.8,0.6,5.2,1.4,7,2.2
		c4.5,2.1,7,5.3,7.4,9.6c0.3,3.5-0.7,6.3-3.2,8.5c-2.4,2.2-5.9,3.5-10.5,3.9c-3.2,0.3-6.2,0-8.9-0.9s-4.8-2.3-6.3-4.2
		c-1.5-1.9-2.4-4.1-2.6-6.7l9.6-0.9c0.2,2.1,0.9,3.6,2.1,4.5c1.2,0.9,3,1.2,5.5,1c1.6-0.1,2.8-0.6,3.6-1.4
		C150,367.8,150.3,366.8,150.2,365.5z"/>
	<path fill="#040C26" d="M193.8,339.7l-11.9,1.1l2.9,32.2l-9.5,0.9l-2.9-32.2l-11.7,1.1l-0.7-7.4l33.1-3L193.8,339.7z"/>
	<path fill="#040C26" d="M214.2,356.2l-5.2,0.5l1.3,14l-9.5,0.9l-3.6-39.6l15.6-1.4c4.7-0.4,8.5,0.3,11.3,2.1
		c2.8,1.8,4.4,4.7,4.8,8.5c0.3,2.8-0.1,5.1-1,7c-0.9,1.9-2.6,3.5-4.8,4.9l9.7,15.2l0,0.4l-10.2,0.9L214.2,356.2z M208.3,349.3l6-0.6
		c1.8-0.2,3.1-0.8,4-1.8c0.8-1,1.2-2.4,1-4.1c-0.2-1.7-0.7-3-1.8-3.9s-2.4-1.3-4.2-1.1l-6,0.6L208.3,349.3z"/>
	<path fill="#040C26" d="M258.9,358.8l-13.1,1.2l-1.6,7.6l-10.2,0.9l10.9-40.9l9-0.8l18.3,38.3l-10.3,0.9L258.9,358.8z M247.4,352.4
		l8.5-0.8l-5.5-13.3L247.4,352.4z"/>
	<path fill="#040C26" d="M299.9,330l-11.9,1.1l2.9,32.2l-9.5,0.9l-2.9-32.2l-11.7,1.1l-0.7-7.4l33.1-3L299.9,330z"/>
	<path fill="#040C26" d="M337.9,339.9c0.4,3.9-0.1,7.3-1.2,10.5c-1.2,3.1-3,5.6-5.5,7.4s-5.4,2.9-8.8,3.2c-3.4,0.3-6.4-0.2-9.2-1.5
		c-2.8-1.3-5-3.3-6.7-6.1c-1.7-2.8-2.8-6-3.2-9.7l-0.2-2.2c-0.4-3.9,0-7.4,1.2-10.5c1.2-3.1,3-5.6,5.5-7.4c2.5-1.9,5.5-2.9,8.9-3.3
		c3.4-0.3,6.4,0.2,9.2,1.6c2.8,1.4,5,3.4,6.8,6.3s2.8,6.1,3.1,9.9L337.9,339.9z M328,339.1c-0.4-3.9-1.3-6.9-2.8-8.8
		c-1.5-1.9-3.5-2.8-5.9-2.5c-4.8,0.4-7,4.3-6.6,11.5l0.2,2.9c0.4,3.9,1.3,6.8,2.7,8.8c1.5,2,3.5,2.8,6,2.6c2.4-0.2,4.2-1.4,5.3-3.6
		c1.1-2.2,1.5-5.2,1.2-9L328,339.1z"/>
	<path fill="#040C26" d="M358,343.1l-5.2,0.5l1.3,14l-9.5,0.9l-3.6-39.6l15.6-1.4c4.7-0.4,8.5,0.3,11.3,2.1c2.8,1.8,4.4,4.7,4.8,8.5
		c0.3,2.8-0.1,5.1-1,7c-1,1.9-2.6,3.5-4.8,4.9l9.7,15.2l0,0.4l-10.2,0.9L358,343.1z M352.2,336.2l6-0.6c1.8-0.2,3.1-0.8,4-1.8
		c0.8-1,1.2-2.4,1-4.1c-0.2-1.7-0.7-3-1.8-3.9c-1-0.9-2.4-1.3-4.2-1.1l-6,0.6L352.2,336.2z"/>
	<path fill="#040C26" d="M393.5,342.7l-4.4,0.4l-0.8,11.3l-5.4,0.5l0.8-11.3l-6,0.6l-0.5-5l6.9-0.6l0.5-7.3l-6,0.5l-0.5-5l6.8-0.6
		l0.8-11.5l5.4-0.5l-0.8,11.5l4.4-0.4l0.8-11.5l5.4-0.5l-0.8,11.5l6.3-0.6l0.5,5l-7.1,0.6l-0.5,7.3l6.2-0.6l0.5,5l-7,0.6l-0.8,11.3
		l-5.4,0.5L393.5,342.7z M389.5,338l4.4-0.4l0.5-7.3l-4.4,0.4L389.5,338z"/>
	<path fill="#040C26" d="M426.7,336.8l-5.2,0.5l1.3,14l-9.5,0.9l-3.6-39.6l15.6-1.4c4.7-0.4,8.5,0.3,11.3,2.1
		c2.8,1.8,4.4,4.7,4.8,8.5c0.3,2.8-0.1,5.1-1,7c-0.9,1.9-2.6,3.5-4.8,4.9l9.7,15.2l0,0.4l-10.2,0.9L426.7,336.8z M420.9,329.9l6-0.6
		c1.8-0.2,3.1-0.8,4-1.8c0.8-1,1.2-2.4,1-4.1c-0.2-1.7-0.7-3-1.8-3.9c-1-0.9-2.4-1.3-4.2-1.1l-6,0.6L420.9,329.9z"/>
	<path fill="#040C26" d="M472.6,329.8l-15,1.4l0.9,9.5l17.7-1.6l0.7,7.3l-27.3,2.5l-3.6-39.6l27.3-2.5l0.7,7.4l-17.8,1.6l0.8,8.4
		l15-1.4L472.6,329.8z"/>
	<path fill="#040C26" d="M509.5,310.8l-11.9,1.1l2.9,32.2L491,345l-2.9-32.2l-11.7,1.1l-0.7-7.4l33.1-3L509.5,310.8z"/>
	<path fill="#040C26" d="M543.9,300.3l2.4,25.9c0.3,2.9-0.1,5.5-1.2,7.8c-1.1,2.3-2.7,4.1-4.9,5.4c-2.2,1.3-5,2.2-8.1,2.4
		c-4.8,0.4-8.7-0.5-11.7-2.7c-3-2.2-4.7-5.5-5.2-9.9l-2.4-26.1l9.6-0.9l2.4,26.3c0.5,4.3,2.7,6.3,6.6,6c2-0.2,3.4-0.9,4.3-2
		c0.9-1.2,1.3-3,1-5.4l-2.4-25.9L543.9,300.3z"/>
	<path fill="#040C26" d="M572.9,326.9c-0.1-1.4-0.7-2.4-1.8-3.1s-2.9-1.3-5.4-1.9s-4.7-1.2-6.3-1.9c-5.4-2-8.2-5.3-8.6-9.7
		c-0.2-2.2,0.3-4.2,1.4-6c1.1-1.8,2.8-3.3,5.1-4.4c2.3-1.1,4.8-1.9,7.8-2.1c2.8-0.3,5.4,0,7.8,0.8c2.4,0.8,4.2,2.1,5.7,3.9
		c1.4,1.8,2.2,3.8,2.5,6.3l-9.5,0.9c-0.1-1.6-0.8-2.8-1.8-3.6c-1.1-0.8-2.4-1.1-4.1-1c-1.7,0.2-3,0.7-3.9,1.5
		c-0.9,0.8-1.3,1.8-1.2,3c0.1,1,0.7,1.9,1.9,2.6c1.2,0.7,3.2,1.4,6,2c2.8,0.6,5.2,1.4,7,2.2c4.5,2.1,7,5.3,7.4,9.6
		c0.3,3.5-0.7,6.3-3.2,8.5c-2.4,2.2-5.9,3.5-10.5,3.9c-3.2,0.3-6.2,0-8.9-0.9s-4.8-2.3-6.3-4.2c-1.5-1.9-2.4-4.1-2.6-6.7l9.6-0.9
		c0.2,2.1,0.9,3.6,2.1,4.5c1.2,0.9,3,1.2,5.5,1c1.6-0.1,2.8-0.6,3.6-1.4C572.7,329.2,573,328.2,572.9,326.9z"/>
	<path fill="#040C26" d="M619.2,319.8c0.1,2.8-0.4,5.3-1.6,7.5s-2.9,4-5.3,5.4c-2.4,1.4-5.1,2.2-8.3,2.5c-5.2,0.5-9.5-0.8-12.8-4
		c-3.3-3.1-5.2-7.8-5.8-14l-0.2-2c-0.4-3.9,0-7.3,1.1-10.4c1.1-3,2.8-5.5,5.2-7.3c2.4-1.8,5.3-2.9,8.6-3.2c4.8-0.4,8.8,0.5,11.9,2.7
		c3.2,2.3,5.1,5.6,5.9,10l-9.5,0.9c-0.3-2.4-1.1-4.1-2.3-5s-3-1.3-5.4-1.1c-2.4,0.2-4,1.3-5,3.1c-0.9,1.9-1.3,4.8-1,8.7l0.3,2.8
		c0.4,4.2,1.2,7.2,2.4,8.9c1.2,1.7,3.1,2.5,5.7,2.2c2.2-0.2,3.8-0.9,4.9-2s1.5-2.8,1.4-5.1L619.2,319.8z"/>
	<path fill="#040C26" d="M658,329.8l-9.5,0.9l-1.5-16.5l-14.1,1.3l1.5,16.5l-9.5,0.9l-3.6-39.6l9.5-0.9l1.4,15.7l14.1-1.3l-1.4-15.7
		l9.5-0.9L658,329.8z"/>
	<path fill="#040C26" d="M687.1,310.2l-15,1.4l0.9,9.5l17.7-1.6l0.7,7.3l-27.3,2.5l-3.6-39.6l27.3-2.5l0.7,7.4l-17.8,1.6l0.8,8.4
		l15-1.4L687.1,310.2z"/>
	<path fill="#040C26" d="M707.8,314l-4.4,0.4l-0.8,11.3l-5.4,0.5l0.8-11.3l-6,0.6l-0.5-5l6.9-0.6l0.5-7.3l-6,0.5l-0.5-5l6.8-0.6
		l0.8-11.5l5.4-0.5l-0.8,11.5l4.4-0.4l0.8-11.5l5.4-0.5l-0.8,11.5l6.3-0.6l0.5,5l-7.1,0.6l-0.5,7.3l6.2-0.6l0.5,5l-7,0.6l-0.8,11.3
		l-5.4,0.5L707.8,314z M703.8,309.3l4.4-0.4l0.5-7.3l-4.4,0.4L703.8,309.3z"/>
	<path fill="#040C26" d="M751.1,305.4l-15.4,1.4l1.4,15.8l-9.5,0.9l-3.6-39.6l26.5-2.4l0.7,7.4l-16.9,1.5l0.8,9.1l15.4-1.4
		L751.1,305.4z"/>
	<path fill="#040C26" d="M789.8,298.6c0.4,3.9-0.1,7.3-1.2,10.5s-3,5.6-5.5,7.4c-2.5,1.8-5.4,2.9-8.8,3.2c-3.4,0.3-6.4-0.2-9.2-1.5
		c-2.8-1.3-5-3.3-6.7-6.1c-1.7-2.8-2.8-6-3.2-9.7l-0.2-2.2c-0.4-3.9,0-7.4,1.2-10.5c1.2-3.1,3-5.6,5.5-7.4c2.5-1.9,5.5-2.9,8.9-3.3
		c3.4-0.3,6.4,0.2,9.2,1.6c2.8,1.4,5,3.4,6.8,6.3c1.7,2.8,2.8,6.1,3.1,9.9L789.8,298.6z M780,297.8c-0.4-3.9-1.3-6.9-2.8-8.8
		c-1.5-1.9-3.5-2.8-5.9-2.5c-4.8,0.4-7,4.3-6.6,11.5l0.2,2.9c0.4,3.9,1.3,6.8,2.7,8.8c1.5,2,3.5,2.8,6,2.6c2.4-0.2,4.2-1.4,5.3-3.6
		c1.1-2.2,1.5-5.2,1.2-9L780,297.8z"/>
	<path fill="#040C26" d="M805.4,308.9l16.6-1.5l0.7,7.3l-26.2,2.4l-3.6-39.6l9.5-0.9L805.4,308.9z"/>
	<path fill="#040C26" d="M836.9,313.4l-9.5,0.9l-3.6-39.6l9.5-0.9L836.9,313.4z"/>
	<path fill="#040C26" d="M866.5,293.8l-15,1.4l0.9,9.5l17.7-1.6l0.7,7.3l-27.3,2.5l-3.6-39.6l27.3-2.5l0.7,7.4l-17.8,1.6l0.8,8.4
		l15-1.4L866.5,293.8z"/>
	<path fill="#040C26" d="M887.3,297.6l-4.4,0.4l-0.8,11.3l-5.4,0.5l0.8-11.3l-6,0.6l-0.5-5l6.9-0.6l0.5-7.3l-6,0.5l-0.5-5l6.8-0.6
		l0.8-11.5l5.4-0.5l-0.8,11.5l4.4-0.4l0.8-11.5l5.4-0.5l-0.8,11.5l6.3-0.6l0.5,5l-7.1,0.6l-0.5,7.3l6.2-0.6l0.5,5l-7,0.6l-0.8,11.3
		l-5.4,0.5L887.3,297.6z M883.3,292.9l4.4-0.4l0.5-7.3l-4.4,0.4L883.3,292.9z"/>
	<path fill="#040C26" d="M907,307l-3.6-39.6l12.8-1.2c3.5-0.3,6.7,0.2,9.7,1.5c2.9,1.3,5.3,3.4,7.2,6.1c1.8,2.7,2.9,5.9,3.3,9.5
		l0.2,1.8c0.3,3.6-0.1,6.9-1.4,10c-1.3,3-3.2,5.5-5.9,7.3c-2.6,1.9-5.7,3-9.1,3.3L907,307z M913.6,273.9l2.3,24.9l3.3-0.3
		c2.7-0.2,4.8-1.4,6-3.5c1.3-2.1,1.8-5,1.4-8.9l-0.2-1.7c-0.3-3.8-1.3-6.6-3-8.4c-1.6-1.8-3.9-2.6-6.7-2.3L913.6,273.9z"/>
	<path fill="#040C26" d="M953.2,302.8l-9.5,0.9l-3.6-39.6l9.5-0.9L953.2,302.8z"/>
	<path fill="#040C26" d="M979.3,289.8c-0.1-1.4-0.7-2.4-1.8-3.1c-1.1-0.7-2.9-1.3-5.4-1.9c-2.6-0.6-4.7-1.2-6.3-1.9
		c-5.4-2.1-8.2-5.3-8.6-9.7c-0.2-2.2,0.3-4.2,1.4-6c1.1-1.8,2.8-3.3,5.1-4.4c2.3-1.1,4.8-1.9,7.8-2.1c2.8-0.3,5.4,0,7.8,0.8
		c2.3,0.8,4.2,2.1,5.7,3.9c1.4,1.8,2.2,3.8,2.5,6.3l-9.5,0.9c-0.1-1.6-0.8-2.8-1.8-3.6c-1.1-0.8-2.4-1.1-4.1-1
		c-1.7,0.2-3,0.7-3.9,1.5c-0.9,0.8-1.3,1.8-1.2,3c0.1,1,0.7,1.9,1.9,2.6c1.2,0.7,3.2,1.4,6,2c2.8,0.6,5.2,1.4,7,2.2
		c4.5,2.1,7,5.3,7.4,9.6c0.3,3.5-0.7,6.3-3.2,8.5c-2.4,2.2-5.9,3.5-10.5,3.9c-3.2,0.3-6.2,0-8.9-0.9c-2.7-0.9-4.8-2.3-6.3-4.2
		c-1.5-1.9-2.4-4.1-2.6-6.7l9.6-0.9c0.2,2.1,0.9,3.6,2.1,4.5c1.2,0.9,3,1.2,5.5,1c1.6-0.1,2.8-0.6,3.6-1.4
		C979.1,292,979.4,291,979.3,289.8z"/>
	<path fill="#040C26" d="M1003.1,284.7l1.2,13.4l-9.5,0.9l-3.6-39.6l15.8-1.4c3-0.3,5.8,0,8.2,0.9c2.4,0.9,4.4,2.3,5.8,4.3
		s2.3,4.2,2.6,6.8c0.4,3.9-0.7,7.1-3.3,9.6c-2.6,2.6-6.2,4.1-11.1,4.5L1003.1,284.7z M1002.4,277.3l6.3-0.6c1.8-0.2,3.2-0.8,4.1-1.8
		c0.9-1,1.3-2.4,1.1-4.1c-0.2-1.8-0.8-3.3-1.9-4.3s-2.5-1.5-4.2-1.3l-6.4,0.6L1002.4,277.3z"/>
	<path fill="#040C26" d="M1039.9,287.5l16.6-1.5l0.7,7.3l-26.2,2.4l-3.6-39.6l9.5-0.9L1039.9,287.5z"/>
	<path fill="#040C26" d="M1083.5,283.4l-13.1,1.2l-1.6,7.6l-10.2,0.9l10.9-40.9l9-0.8l18.3,38.3l-10.3,0.9L1083.5,283.4z
		 M1072,277.1l8.5-0.8l-5.5-13.3L1072,277.1z"/>
	<path fill="#040C26" d="M1108,266.1l5.7-17.9l10.3-0.9l-10.4,26.5l1.3,14.2l-9.7,0.9l-1.3-14.2l-15-24.2l10.3-0.9L1108,266.1z"/>
	<path fill="#040C26" d="M-0.8,443.8l1.2,13.4l-9.5,0.9l-3.6-39.6l15.8-1.4c3-0.3,5.8,0,8.2,0.9s4.4,2.3,5.8,4.3
		c1.5,1.9,2.3,4.2,2.6,6.8c0.4,3.9-0.7,7.1-3.3,9.6c-2.6,2.6-6.2,4.1-11.1,4.5L-0.8,443.8z M-1.4,436.4l6.3-0.6
		c1.9-0.2,3.2-0.8,4.1-1.8s1.3-2.4,1.1-4c-0.2-1.8-0.8-3.3-1.9-4.3c-1.1-1-2.5-1.5-4.2-1.3l-6.4,0.6L-1.4,436.4z"/>
	<path fill="#040C26" d="M36.1,446.6l16.6-1.5l0.7,7.3l-26.2,2.4l-3.6-39.6l9.5-0.9L36.1,446.6z"/>
	<path fill="#040C26" d="M87.4,430.2c0.4,3.9-0.1,7.3-1.2,10.5c-1.2,3.1-3,5.6-5.5,7.4c-2.5,1.8-5.4,2.9-8.8,3.2
		c-3.4,0.3-6.4-0.2-9.2-1.5c-2.8-1.3-5-3.3-6.7-6.1c-1.7-2.8-2.8-6-3.2-9.7l-0.2-2.2c-0.4-3.9,0-7.4,1.2-10.5c1.2-3.1,3-5.6,5.5-7.4
		c2.5-1.9,5.5-2.9,8.9-3.3c3.4-0.3,6.4,0.2,9.2,1.6c2.8,1.4,5,3.4,6.8,6.3c1.7,2.8,2.8,6.1,3.1,9.9L87.4,430.2z M77.6,429.4
		c-0.4-3.9-1.3-6.9-2.8-8.8c-1.5-1.9-3.5-2.8-5.9-2.5c-4.8,0.4-7,4.3-6.6,11.5l0.2,2.9c0.4,3.9,1.3,6.8,2.7,8.8c1.5,2,3.5,2.8,6,2.6
		c2.4-0.2,4.2-1.4,5.3-3.6c1.1-2.2,1.5-5.2,1.2-9L77.6,429.4z"/>
	<path fill="#040C26" d="M119.9,413.8l-11.9,1.1l2.9,32.2l-9.5,0.9l-2.9-32.2l-11.7,1.1l-0.7-7.4l33.1-3L119.9,413.8z"/>
	<path fill="#040C26" d="M155.5,410.6l-11.9,1.1l2.9,32.2l-9.5,0.9l-2.9-32.2l-11.7,1.1l-0.7-7.4l33.1-3L155.5,410.6z"/>
	<path fill="#040C26" d="M175.1,430l-4.4,0.4l-0.8,11.3l-5.4,0.5l0.8-11.3l-6,0.6l-0.5-5l6.9-0.6l0.5-7.3l-6,0.5l-0.5-5l6.8-0.6
		l0.8-11.5l5.4-0.5l-0.8,11.5l4.4-0.4l0.8-11.5l5.4-0.5l-0.8,11.5l6.3-0.6l0.5,5l-7.1,0.6l-0.5,7.3l6.2-0.6l0.5,5l-7,0.6l-0.8,11.3
		l-5.4,0.5L175.1,430z M171.1,425.4l4.4-0.4l0.5-7.3l-4.4,0.4L171.1,425.4z"/>
	<path fill="#040C26" d="M194.8,439.5l-3.6-39.6l14.2-1.3c5.1-0.5,9.1,0.1,11.9,1.7s4.4,4.2,4.7,7.8c0.2,2-0.1,3.8-0.9,5.4
		c-0.8,1.5-2.1,2.7-3.9,3.6c2.1,0.4,3.8,1.2,5,2.6c1.2,1.4,2,3.1,2.2,5.3c0.4,3.9-0.6,6.9-2.9,9.1c-2.3,2.2-5.8,3.5-10.6,4
		L194.8,439.5z M202.3,415.5l5-0.5c2.1-0.2,3.5-0.7,4.4-1.6c0.8-0.8,1.2-2,1-3.4c-0.2-1.7-0.7-2.8-1.8-3.5c-1-0.6-2.6-0.9-4.8-0.7
		l-4.7,0.4L202.3,415.5z M202.8,421.8l0.9,9.5l6.3-0.6c1.7-0.2,3-0.7,3.9-1.5c0.9-0.9,1.2-2,1.1-3.5c-0.3-3.3-2.1-4.8-5.4-4.5
		L202.8,421.8z"/>
	<path fill="#040C26" d="M253.8,417.2l-15,1.4l0.9,9.5l17.7-1.6l0.7,7.3l-27.3,2.5l-3.6-39.6l27.3-2.5l0.7,7.4l-17.8,1.6l0.8,8.4
		l15-1.4L253.8,417.2z"/>
	<path fill="#040C26" d="M281.4,421c-0.1-1.4-0.7-2.4-1.8-3.1c-1.1-0.7-2.9-1.3-5.4-1.9c-2.6-0.6-4.7-1.2-6.3-1.9
		c-5.4-2.1-8.2-5.3-8.6-9.7c-0.2-2.2,0.3-4.2,1.4-6c1.1-1.8,2.8-3.3,5.1-4.4c2.3-1.1,4.8-1.9,7.8-2.1c2.8-0.3,5.4,0,7.8,0.8
		c2.4,0.8,4.2,2.1,5.7,3.9c1.4,1.8,2.2,3.9,2.5,6.3l-9.5,0.9c-0.1-1.6-0.8-2.8-1.8-3.6c-1.1-0.8-2.4-1.1-4.1-1
		c-1.7,0.2-3,0.7-3.9,1.5c-0.9,0.8-1.3,1.8-1.2,3c0.1,1,0.7,1.9,1.9,2.6c1.2,0.7,3.2,1.4,6,2c2.8,0.6,5.2,1.4,7,2.2
		c4.5,2.1,7,5.3,7.4,9.6c0.3,3.5-0.7,6.3-3.2,8.5c-2.4,2.2-5.9,3.5-10.5,3.9c-3.2,0.3-6.2,0-8.9-0.9c-2.7-0.9-4.8-2.3-6.3-4.2
		c-1.5-1.9-2.4-4.1-2.6-6.7l9.6-0.9c0.2,2.1,0.9,3.6,2.1,4.5c1.2,0.9,3,1.2,5.5,1c1.6-0.1,2.8-0.6,3.6-1.4
		C281.1,423.2,281.5,422.2,281.4,421z"/>
	<path fill="#040C26" d="M327.6,413.8c0.1,2.8-0.4,5.3-1.6,7.5c-1.2,2.2-2.9,4-5.3,5.4c-2.4,1.4-5.1,2.2-8.3,2.5
		c-5.2,0.5-9.5-0.8-12.8-4c-3.3-3.1-5.2-7.8-5.8-14l-0.2-2c-0.4-3.9,0-7.3,1.1-10.4c1.1-3,2.8-5.5,5.2-7.3c2.4-1.8,5.3-2.9,8.6-3.2
		c4.8-0.4,8.8,0.5,11.9,2.7c3.1,2.3,5.1,5.6,5.9,10l-9.5,0.9c-0.3-2.4-1.1-4.1-2.3-5s-3-1.3-5.4-1.1c-2.4,0.2-4,1.3-5,3.1
		c-0.9,1.9-1.3,4.8-1,8.7l0.3,2.8c0.4,4.2,1.2,7.2,2.4,8.9c1.2,1.7,3.1,2.5,5.7,2.2c2.2-0.2,3.8-0.9,4.9-2s1.5-2.8,1.4-5.1
		L327.6,413.8z"/>
	<path fill="#040C26" d="M366.4,423.8l-9.5,0.9l-1.5-16.5l-14.1,1.3l1.5,16.5l-9.5,0.9l-3.6-39.6l9.5-0.9l1.4,15.7l14.1-1.3
		l-1.4-15.7l9.5-0.9L366.4,423.8z"/>
	<path fill="#040C26" d="M385.9,407.9l-5.2,0.5l1.3,14l-9.5,0.9l-3.6-39.6l15.6-1.4c4.7-0.4,8.5,0.3,11.3,2.1
		c2.8,1.8,4.4,4.7,4.8,8.5c0.3,2.8-0.1,5.1-1,7c-1,1.9-2.6,3.5-4.8,4.9l9.7,15.2l0,0.4l-10.2,0.9L385.9,407.9z M380.1,401l6-0.6
		c1.8-0.2,3.1-0.8,4-1.8c0.8-1,1.2-2.4,1-4.1c-0.2-1.7-0.7-3-1.8-3.9c-1-0.9-2.4-1.3-4.2-1.1l-6,0.6L380.1,401z"/>
	<path fill="#040C26" d="M419,419l-9.5,0.9l-3.6-39.6l9.5-0.9L419,419z"/>
	<path fill="#040C26" d="M449.1,400.4l-15.4,1.4l1.4,15.8l-9.5,0.9l-3.6-39.6l26.5-2.4l0.7,7.4l-16.9,1.5l0.8,9.1l15.4-1.4
		L449.1,400.4z"/>
	<path fill="#040C26" d="M484.8,380.5l-11.9,1.1l2.9,32.2l-9.5,0.9l-2.9-32.2l-11.7,1.1l-0.7-7.4l33.1-3L484.8,380.5z"/>
	<path fill="#040C26" d="M519.2,369.9l2.4,25.9c0.3,2.9-0.1,5.5-1.2,7.8c-1.1,2.3-2.7,4.1-4.9,5.4c-2.2,1.3-5,2.2-8.1,2.4
		c-4.8,0.4-8.7-0.5-11.7-2.7c-3-2.2-4.7-5.5-5.2-9.9l-2.4-26.1l9.6-0.9l2.4,26.3c0.5,4.3,2.7,6.3,6.6,5.9c2-0.2,3.4-0.9,4.3-2
		c0.9-1.2,1.3-3,1-5.4l-2.4-25.9L519.2,369.9z"/>
	<path fill="#040C26" d="M561.9,406l-9.5,0.9l-16.3-23.4l2.3,24.6l-9.5,0.9l-3.6-39.6l9.5-0.9l16.3,23.4l-2.3-24.6l9.5-0.9
		L561.9,406z"/>
	<path fill="#040C26" d="M599.9,397.6c-1.3,1.8-3.3,3.3-6.1,4.5c-2.7,1.3-5.8,2-9.2,2.3c-5.2,0.5-9.5-0.7-12.9-3.6
		c-3.4-2.9-5.5-7.2-6.2-12.8l-0.3-3.4c-0.4-3.9,0-7.4,1.1-10.4c1.1-3,2.9-5.5,5.3-7.3c2.4-1.8,5.3-2.9,8.7-3.2
		c4.9-0.5,8.9,0.3,11.8,2.3c2.9,2,4.8,5.2,5.7,9.7l-9.2,0.8c-0.5-2.2-1.4-3.7-2.6-4.5s-2.8-1.2-4.8-1c-2.4,0.2-4.2,1.4-5.3,3.6
		c-1.1,2.2-1.5,5.1-1.2,8.9l0.2,2.4c0.4,4,1.3,6.9,2.8,8.7c1.5,1.9,3.7,2.7,6.7,2.4c2.5-0.2,4.3-0.9,5.4-2.2l-0.6-6.1l-6.6,0.6
		l-0.6-6.6l16.2-1.5L599.9,397.6z"/>
	<path fill="#040C26" d="M618.5,389.5l-4.4,0.4l-0.8,11.3l-5.4,0.5l0.8-11.3l-6,0.6l-0.5-5l6.9-0.6l0.5-7.3l-6,0.5l-0.5-5l6.8-0.6
		l0.8-11.5l5.4-0.5l-0.8,11.5l4.4-0.4l0.8-11.5l5.4-0.5l-0.8,11.5l6.3-0.6l0.5,5l-7.1,0.6l-0.5,7.3l6.2-0.6l0.5,5l-7,0.6l-0.8,11.3
		l-5.4,0.5L618.5,389.5z M614.5,384.9l4.4-0.4l0.5-7.3l-4.4,0.4L614.5,384.9z"/>
	<path fill="#040C26" d="M660.1,389.5l-13.1,1.2l-1.6,7.6l-10.2,0.9l10.9-40.9l9-0.8l18.3,38.3l-10.3,0.9L660.1,389.5z M648.6,383.1
		l8.5-0.8l-5.5-13.3L648.6,383.1z"/>
	<path fill="#040C26" d="M703.2,353.1l2.4,25.9c0.3,2.9-0.1,5.5-1.2,7.8s-2.7,4.1-4.9,5.4c-2.2,1.3-5,2.2-8.1,2.4
		c-4.8,0.4-8.7-0.5-11.7-2.7c-3-2.2-4.7-5.5-5.2-9.9L672,356l9.6-0.9l2.4,26.3c0.5,4.3,2.7,6.3,6.6,6c2-0.2,3.4-0.9,4.3-2
		c0.9-1.2,1.3-3,1-5.4l-2.4-25.9L703.2,353.1z"/>
	<path fill="#040C26" d="M740.9,357.1l-11.9,1.1l2.9,32.2l-9.5,0.9l-2.9-32.2l-11.7,1.1l-0.7-7.4l33.1-3L740.9,357.1z"/>
	<path fill="#040C26" d="M778.9,367c0.4,3.9-0.1,7.3-1.2,10.5c-1.2,3.1-3,5.6-5.5,7.4c-2.5,1.8-5.4,2.9-8.8,3.2
		c-3.4,0.3-6.4-0.2-9.2-1.5c-2.8-1.3-5-3.3-6.7-6.1c-1.7-2.7-2.8-6-3.2-9.7l-0.2-2.2c-0.4-3.9,0-7.4,1.2-10.5c1.2-3.1,3-5.6,5.5-7.4
		c2.5-1.9,5.5-2.9,8.8-3.3c3.4-0.3,6.4,0.2,9.2,1.6c2.8,1.4,5,3.4,6.8,6.3c1.7,2.8,2.8,6.1,3.1,9.9L778.9,367z M769,366.2
		c-0.4-3.9-1.3-6.9-2.8-8.8c-1.5-1.9-3.5-2.8-5.9-2.5c-4.8,0.4-7,4.3-6.6,11.5l0.2,2.9c0.4,3.9,1.3,6.8,2.7,8.8c1.5,2,3.5,2.8,6,2.6
		c2.4-0.2,4.2-1.4,5.3-3.6c1.1-2.2,1.5-5.2,1.2-9L769,366.2z"/>
	<path fill="#040C26" d="M794.5,344.8l11.4,26.7l6.3-28.4l12.6-1.1l3.6,39.6l-9.6,0.9l-0.8-9.2l-0.8-19l-7,29.1l-6.3,0.6l-12.2-27.3
		l2.7,18.9l0.8,9.2l-9.5,0.9l-3.6-39.6L794.5,344.8z"/>
	<path fill="#040C26" d="M856.7,371.6l-13.1,1.2l-1.6,7.6l-10.2,0.9l10.9-40.9l9-0.8l18.3,38.3l-10.3,0.9L856.7,371.6z M845.2,365.2
		l8.5-0.8l-5.5-13.3L845.2,365.2z"/>
	<path fill="#040C26" d="M897.7,342.8l-11.9,1.1l2.9,32.2l-9.5,0.9l-2.9-32.2l-11.7,1.1l-0.7-7.4l33.1-3L897.7,342.8z"/>
	<path fill="#040C26" d="M914.8,373.7l-9.5,0.9l-3.6-39.6l9.5-0.9L914.8,373.7z"/>
	<path fill="#040C26" d="M940.9,360.7c-0.1-1.4-0.7-2.4-1.8-3.1s-2.9-1.3-5.4-1.9c-2.6-0.6-4.7-1.2-6.3-1.9
		c-5.4-2.1-8.2-5.3-8.6-9.7c-0.2-2.2,0.3-4.2,1.4-6c1.1-1.8,2.8-3.3,5.1-4.4c2.3-1.1,4.8-1.9,7.8-2.1c2.8-0.3,5.4,0,7.8,0.8
		c2.3,0.8,4.2,2.1,5.7,3.9c1.4,1.8,2.2,3.8,2.5,6.3l-9.5,0.9c-0.1-1.6-0.8-2.8-1.8-3.6s-2.4-1.1-4.1-1c-1.7,0.2-3,0.7-3.9,1.5
		c-0.9,0.8-1.3,1.8-1.2,3c0.1,1,0.7,1.9,1.9,2.6c1.2,0.7,3.2,1.4,6,2c2.8,0.6,5.2,1.4,7,2.2c4.5,2.1,7,5.3,7.4,9.6
		c0.3,3.5-0.7,6.3-3.2,8.5c-2.4,2.2-5.9,3.5-10.5,3.9c-3.2,0.3-6.2,0-8.9-0.9c-2.7-0.9-4.8-2.3-6.3-4.2c-1.5-1.9-2.4-4.1-2.6-6.7
		l9.6-0.9c0.2,2.1,0.9,3.6,2.1,4.5c1.2,0.9,3,1.2,5.5,1c1.6-0.1,2.8-0.6,3.6-1.4C940.7,363,941,362,940.9,360.7z"/>
	<path fill="#040C26" d="M987.2,353.6c0.1,2.8-0.4,5.3-1.6,7.5c-1.2,2.2-2.9,4-5.3,5.4c-2.4,1.4-5.1,2.2-8.3,2.5
		c-5.2,0.5-9.5-0.8-12.8-4c-3.3-3.1-5.2-7.8-5.8-14l-0.2-2c-0.4-3.9,0-7.3,1.1-10.4c1.1-3,2.8-5.5,5.2-7.3c2.4-1.8,5.3-2.9,8.6-3.2
		c4.8-0.4,8.8,0.5,11.9,2.7c3.2,2.3,5.1,5.6,5.9,10l-9.5,0.9c-0.3-2.4-1.1-4.1-2.3-5s-3-1.3-5.4-1.1c-2.4,0.2-4,1.3-5,3.1
		c-0.9,1.9-1.3,4.8-1,8.7l0.3,2.8c0.4,4.2,1.2,7.2,2.4,8.9c1.2,1.7,3.1,2.5,5.7,2.2c2.2-0.2,3.8-0.9,4.9-2c1.1-1.1,1.5-2.8,1.4-5.1
		L987.2,353.6z"/>
	<path fill="#040C26" d="M1026,363.6l-9.5,0.9l-1.5-16.5l-14.1,1.3l1.5,16.5l-9.5,0.9l-3.6-39.6l9.5-0.9l1.4,15.7l14.1-1.3
		l-1.4-15.7l9.5-0.9L1026,363.6z"/>
	<path fill="#040C26" d="M1044.7,350.6l-4.4,0.4l-0.8,11.3l-5.4,0.5l0.8-11.3l-6,0.6l-0.5-5l6.9-0.6l0.5-7.3l-6,0.5l-0.5-5l6.8-0.6
		l0.8-11.5l5.4-0.5l-0.8,11.5l4.4-0.4l0.8-11.5l5.4-0.5l-0.8,11.5l6.3-0.6l0.5,5l-7.1,0.6l-0.5,7.3l6.2-0.6l0.5,5l-7,0.6l-0.8,11.3
		l-5.4,0.5L1044.7,350.6z M1040.7,346l4.4-0.4l0.5-7.3l-4.4,0.4L1040.7,346z"/>
	<path fill="#040C26" d="M9.7,512.6L5.3,513l-0.8,11.3l-5.4,0.5l0.8-11.3l-6,0.6l-0.5-5l6.9-0.6l0.5-7.3l-6,0.5l-0.5-5l6.8-0.6
		L2,484.6l5.4-0.5l-0.8,11.5l4.4-0.4l0.8-11.5l5.4-0.5l-0.8,11.5l6.3-0.6l0.5,5l-7.1,0.6l-0.5,7.3l6.2-0.6l0.5,5l-7,0.6l-0.8,11.3
		l-5.4,0.5L9.7,512.6z M5.6,507.9l4.4-0.4l0.5-7.3l-4.4,0.4L5.6,507.9z"/>
	<path fill="#040C26" d="M39.6,521.1l-9.5,0.9l-3.6-39.6l9.5-0.9L39.6,521.1z"/>
	<path fill="#040C26" d="M55.1,512.3l16.6-1.5l0.7,7.3l-26.2,2.4l-3.6-39.6l9.5-0.9L55.1,512.3z"/>
	<path fill="#040C26" d="M85.3,509.5l16.6-1.5l0.7,7.3l-26.2,2.4l-3.6-39.6l9.5-0.9L85.3,509.5z"/>
	<path fill="#040C26" d="M133.4,472.6l2.4,25.9c0.3,2.9-0.1,5.5-1.2,7.8c-1.1,2.3-2.7,4.1-4.9,5.4c-2.2,1.3-5,2.2-8.1,2.4
		c-4.8,0.4-8.7-0.5-11.7-2.7s-4.7-5.5-5.2-9.9l-2.4-26.1l9.6-0.9l2.4,26.3c0.5,4.3,2.7,6.3,6.6,6c2-0.2,3.4-0.9,4.3-2
		c0.9-1.2,1.3-3,1-5.4l-2.4-25.9L133.4,472.6z"/>
	<path fill="#040C26" d="M162.4,499.2c-0.1-1.4-0.7-2.4-1.8-3.1c-1.1-0.7-2.9-1.3-5.4-1.9c-2.6-0.6-4.7-1.2-6.3-1.9
		c-5.4-2.1-8.2-5.3-8.6-9.7c-0.2-2.2,0.3-4.2,1.4-6c1.1-1.8,2.8-3.3,5.1-4.4c2.3-1.1,4.8-1.9,7.8-2.1c2.8-0.3,5.4,0,7.8,0.8
		c2.4,0.8,4.2,2.1,5.7,3.9s2.2,3.8,2.5,6.3l-9.5,0.9c-0.1-1.6-0.8-2.8-1.8-3.6c-1.1-0.8-2.4-1.1-4.1-1c-1.7,0.2-3,0.7-3.9,1.5
		c-0.9,0.8-1.3,1.8-1.2,3c0.1,1,0.7,1.9,1.9,2.6c1.2,0.7,3.2,1.4,6,2c2.8,0.6,5.2,1.4,7,2.2c4.5,2.1,7,5.3,7.4,9.6
		c0.3,3.5-0.7,6.3-3.2,8.5c-2.4,2.2-5.9,3.5-10.5,3.9c-3.2,0.3-6.2,0-8.9-0.9c-2.7-0.9-4.8-2.3-6.3-4.2c-1.5-1.9-2.4-4.1-2.6-6.7
		l9.6-0.9c0.2,2.1,0.9,3.6,2.1,4.5c1.2,0.9,3,1.2,5.5,1c1.6-0.1,2.8-0.6,3.6-1.4C162.2,501.5,162.5,500.5,162.4,499.2z"/>
	<path fill="#040C26" d="M206,473.4l-11.9,1.1l2.9,32.2l-9.5,0.9l-2.9-32.2l-11.7,1.1l-0.7-7.4l33.1-3L206,473.4z"/>
	<path fill="#040C26" d="M226.4,489.9l-5.2,0.5l1.3,14l-9.5,0.9l-3.6-39.6l15.6-1.4c4.7-0.4,8.5,0.3,11.3,2.1
		c2.8,1.8,4.4,4.7,4.8,8.5c0.3,2.8-0.1,5.1-1,7c-0.9,1.9-2.6,3.5-4.8,4.9l9.7,15.2l0,0.4l-10.2,0.9L226.4,489.9z M220.5,483l6-0.6
		c1.8-0.2,3.1-0.8,4-1.8c0.8-1,1.2-2.4,1-4.1c-0.2-1.7-0.7-3-1.8-3.9c-1-0.9-2.4-1.3-4.2-1.1l-6,0.6L220.5,483z"/>
	<path fill="#040C26" d="M271.1,492.5l-13.1,1.2l-1.6,7.6l-10.2,0.9l10.9-40.9l9-0.8l18.3,38.3l-10.3,0.9L271.1,492.5z M259.6,486.1
		l8.5-0.8l-5.5-13.3L259.6,486.1z"/>
	<path fill="#040C26" d="M312.1,463.7l-11.9,1.1l2.9,32.2l-9.5,0.9l-2.9-32.2l-11.7,1.1l-0.7-7.4l33.1-3L312.1,463.7z"/>
	<path fill="#040C26" d="M350.1,473.6c0.4,3.9-0.1,7.3-1.2,10.5c-1.2,3.1-3,5.6-5.5,7.4c-2.5,1.8-5.4,2.9-8.8,3.2
		c-3.4,0.3-6.4-0.2-9.2-1.5c-2.8-1.3-5-3.3-6.7-6.1c-1.7-2.8-2.8-6-3.2-9.7l-0.2-2.2c-0.4-3.9,0-7.4,1.2-10.5c1.2-3.1,3-5.6,5.5-7.4
		c2.5-1.9,5.5-2.9,8.9-3.3c3.4-0.3,6.4,0.2,9.2,1.6c2.8,1.4,5,3.4,6.8,6.3s2.8,6.1,3.1,9.9L350.1,473.6z M340.3,472.8
		c-0.4-3.9-1.3-6.9-2.8-8.8c-1.5-1.9-3.5-2.8-5.9-2.5c-4.8,0.4-7,4.3-6.6,11.5l0.2,2.9c0.4,3.9,1.3,6.8,2.7,8.8c1.5,2,3.5,2.8,6,2.6
		c2.4-0.2,4.2-1.4,5.3-3.6c1.1-2.2,1.5-5.2,1.2-9L340.3,472.8z"/>
	<path fill="#040C26" d="M370.2,476.7l-5.2,0.5l1.3,14l-9.5,0.9l-3.6-39.6l15.6-1.4c4.7-0.4,8.5,0.3,11.3,2.1
		c2.8,1.8,4.4,4.7,4.8,8.5c0.3,2.8-0.1,5.1-1,7c-0.9,1.9-2.6,3.5-4.8,4.9l9.7,15.2l0,0.4l-10.2,0.9L370.2,476.7z M364.4,469.9l6-0.6
		c1.8-0.2,3.1-0.8,4-1.8c0.8-1,1.2-2.4,1-4.1c-0.2-1.7-0.7-3-1.8-3.9c-1-0.9-2.4-1.3-4.2-1.1l-6,0.6L364.4,469.9z"/>
	<path fill="#040C26" d="M405.8,476.4l-4.4,0.4l-0.8,11.3l-5.4,0.5l0.8-11.3l-6,0.6l-0.5-5l6.9-0.6l0.5-7.3l-6,0.5l-0.5-5l6.8-0.6
		l0.8-11.5l5.4-0.5l-0.8,11.5l4.4-0.4l0.8-11.5l5.4-0.5l-0.8,11.5l6.3-0.6l0.5,5l-7.1,0.6l-0.5,7.3l6.2-0.6l0.5,5l-7,0.6l-0.8,11.3
		l-5.4,0.5L405.8,476.4z M401.7,471.7l4.4-0.4l0.5-7.3l-4.4,0.4L401.7,471.7z"/>
	<path fill="#040C26" d="M435.7,484.9l-9.5,0.9l-3.6-39.6l9.5-0.9L435.7,484.9z"/>
	<path fill="#040C26" d="M475.4,481.3l-9.5,0.9l-16.3-23.4l2.3,24.6l-9.5,0.9l-3.6-39.6l9.5-0.9l16.3,23.4l-2.3-24.6l9.5-0.9
		L475.4,481.3z"/>
	<path fill="#040C26" d="M481.4,480.7l-3.6-39.6l12.8-1.2c3.5-0.3,6.7,0.2,9.7,1.5c2.9,1.3,5.3,3.4,7.2,6.1c1.8,2.7,2.9,5.9,3.3,9.5
		l0.2,1.8c0.3,3.6-0.1,6.9-1.4,10c-1.3,3-3.2,5.5-5.9,7.3c-2.6,1.9-5.7,3-9.1,3.3L481.4,480.7z M488,447.6l2.3,24.9l3.3-0.3
		c2.7-0.3,4.8-1.4,6-3.5c1.3-2.1,1.8-5,1.4-8.9l-0.2-1.7c-0.3-3.8-1.3-6.6-3-8.4c-1.6-1.8-3.9-2.6-6.7-2.3L488,447.6z"/>
	<path fill="#040C26" d="M540.5,458.4l-15,1.4l0.9,9.5l17.7-1.6l0.7,7.3l-27.3,2.5l-3.6-39.6l27.3-2.5l0.7,7.4l-17.8,1.6l0.8,8.3
		l15-1.4L540.5,458.4z"/>
	<path fill="#040C26" d="M568.1,462.2c-0.1-1.4-0.7-2.4-1.8-3.1c-1.1-0.7-2.9-1.3-5.4-1.9c-2.6-0.6-4.7-1.2-6.3-1.9
		c-5.4-2.1-8.2-5.3-8.6-9.7c-0.2-2.2,0.3-4.2,1.4-6c1.1-1.8,2.8-3.3,5.1-4.4c2.3-1.1,4.8-1.9,7.8-2.1c2.8-0.3,5.4,0,7.8,0.8
		c2.3,0.8,4.2,2.1,5.7,3.9c1.4,1.8,2.2,3.8,2.5,6.3l-9.5,0.9c-0.1-1.6-0.8-2.8-1.8-3.6c-1.1-0.8-2.4-1.1-4.1-1
		c-1.7,0.2-3,0.7-3.9,1.5c-0.9,0.8-1.3,1.8-1.2,3c0.1,1,0.7,1.9,1.9,2.6c1.2,0.7,3.2,1.4,6,2c2.8,0.6,5.2,1.4,7,2.2
		c4.5,2.1,7,5.3,7.4,9.6c0.3,3.5-0.7,6.3-3.2,8.5c-2.4,2.2-5.9,3.5-10.5,3.9c-3.2,0.3-6.2,0-8.9-0.9c-2.7-0.9-4.8-2.3-6.3-4.2
		c-1.5-1.9-2.4-4.1-2.6-6.7l9.6-0.9c0.2,2.1,0.9,3.6,2.1,4.5c1.2,0.9,3,1.2,5.5,1c1.6-0.1,2.8-0.6,3.6-1.4
		C567.8,464.4,568.2,463.4,568.1,462.2z"/>
	<path fill="#040C26" d="M593.6,470.5l-9.5,0.9l-3.6-39.6l9.5-0.9L593.6,470.5z"/>
	<path fill="#040C26" d="M632.3,462c-1.3,1.8-3.3,3.3-6.1,4.5s-5.8,2-9.2,2.3c-5.2,0.5-9.5-0.7-12.9-3.6c-3.4-2.9-5.5-7.2-6.2-12.8
		l-0.3-3.4c-0.4-3.9,0-7.4,1.1-10.4c1.1-3,2.9-5.5,5.3-7.3c2.4-1.8,5.3-2.9,8.7-3.2c4.9-0.5,8.9,0.3,11.8,2.3c2.9,2,4.8,5.2,5.7,9.7
		l-9.2,0.8c-0.5-2.2-1.4-3.7-2.6-4.5c-1.2-0.8-2.8-1.2-4.8-1c-2.4,0.2-4.2,1.4-5.3,3.6c-1.1,2.2-1.5,5.1-1.2,8.9l0.2,2.4
		c0.4,4,1.3,6.9,2.8,8.7c1.5,1.9,3.7,2.7,6.7,2.4c2.5-0.2,4.3-0.9,5.4-2.2l-0.6-6.1l-6.6,0.6l-0.6-6.6l16.2-1.5L632.3,462z"/>
	<path fill="#040C26" d="M671.3,463.4l-9.5,0.9l-16.3-23.4l2.3,24.6l-9.5,0.9l-3.6-39.6l9.5-0.9l16.3,23.4l-2.3-24.6l9.5-0.9
		L671.3,463.4z"/>
	<path fill="#040C26" d="M690,450.4l-4.4,0.4l-0.8,11.3l-5.4,0.5l0.8-11.3l-6,0.6l-0.5-5l6.9-0.6l0.5-7.3l-6,0.5l-0.5-5l6.8-0.6
		l0.8-11.5l5.4-0.5l-0.8,11.5l4.4-0.4l0.8-11.5l5.4-0.5l-0.8,11.5l6.3-0.6l0.5,5l-7.1,0.6l-0.5,7.3l6.2-0.6l0.5,5l-7,0.6l-0.8,11.3
		l-5.4,0.5L690,450.4z M686,445.8l4.4-0.4l0.5-7.3l-4.4,0.4L686,445.8z"/>
	<path fill="#040C26" d="M718,445.6l1.2,13.4l-9.5,0.9l-3.6-39.6l15.8-1.4c3-0.3,5.8,0,8.2,0.9c2.4,0.9,4.4,2.3,5.8,4.3
		c1.5,1.9,2.3,4.2,2.6,6.8c0.4,3.9-0.7,7.1-3.3,9.6c-2.6,2.6-6.2,4.1-11.1,4.5L718,445.6z M717.4,438.2l6.3-0.6
		c1.8-0.2,3.2-0.8,4.1-1.8c0.9-1,1.3-2.4,1.1-4c-0.2-1.8-0.8-3.3-1.9-4.3s-2.5-1.5-4.2-1.3l-6.4,0.6L717.4,438.2z"/>
	<path fill="#040C26" d="M779.1,453.5l-9.5,0.9l-1.5-16.5l-14.1,1.3l1.5,16.5l-9.5,0.9l-3.6-39.6l9.5-0.9l1.4,15.7l14.1-1.3
		l-1.4-15.7l9.5-0.9L779.1,453.5z"/>
	<path fill="#040C26" d="M816.9,430.9c0.4,3.9-0.1,7.3-1.2,10.5c-1.2,3.1-3,5.6-5.5,7.4c-2.5,1.8-5.4,2.9-8.8,3.2
		c-3.4,0.3-6.4-0.2-9.2-1.5c-2.8-1.3-5-3.3-6.7-6.1c-1.7-2.7-2.8-6-3.2-9.7l-0.2-2.2c-0.4-3.9,0-7.4,1.2-10.5c1.2-3.1,3-5.6,5.5-7.4
		c2.5-1.9,5.5-2.9,8.8-3.3c3.4-0.3,6.4,0.2,9.2,1.6c2.8,1.4,5,3.4,6.8,6.3c1.7,2.8,2.8,6.1,3.1,9.9L816.9,430.9z M807.1,430.2
		c-0.4-3.9-1.3-6.9-2.8-8.8s-3.5-2.8-5.9-2.5c-4.8,0.4-7,4.3-6.6,11.5l0.2,2.9c0.4,3.9,1.3,6.8,2.8,8.8c1.5,2,3.5,2.8,6,2.6
		c2.4-0.2,4.2-1.4,5.3-3.6s1.5-5.2,1.2-9L807.1,430.2z"/>
	<path fill="#040C26" d="M849.4,414.6l-11.9,1.1l2.9,32.2l-9.5,0.9l-2.9-32.2l-11.7,1.1l-0.7-7.4l33.1-3L849.4,414.6z"/>
	<path fill="#040C26" d="M887.4,424.5c0.4,3.9-0.1,7.3-1.2,10.5c-1.2,3.1-3,5.6-5.5,7.4s-5.4,2.9-8.8,3.2c-3.4,0.3-6.4-0.2-9.2-1.5
		c-2.8-1.3-5-3.3-6.7-6.1c-1.7-2.7-2.8-6-3.2-9.7l-0.2-2.2c-0.4-3.9,0-7.4,1.2-10.5c1.2-3.1,3-5.6,5.5-7.4c2.5-1.9,5.5-2.9,8.9-3.3
		c3.4-0.3,6.4,0.2,9.2,1.6c2.8,1.4,5,3.4,6.8,6.3c1.7,2.8,2.8,6.1,3.1,9.9L887.4,424.5z M877.6,423.7c-0.4-3.9-1.3-6.9-2.8-8.8
		c-1.5-1.9-3.5-2.8-5.9-2.5c-4.8,0.4-7,4.3-6.6,11.5l0.2,2.9c0.4,3.9,1.3,6.8,2.7,8.8c1.5,2,3.5,2.8,6,2.6c2.4-0.2,4.2-1.4,5.3-3.6
		c1.1-2.2,1.5-5.2,1.2-9L877.6,423.7z"/>
	<path fill="#040C26" d="M913.6,430.6c-0.1-1.4-0.7-2.4-1.8-3.1c-1.1-0.7-2.9-1.3-5.4-1.9c-2.6-0.6-4.7-1.2-6.3-1.9
		c-5.4-2.1-8.2-5.3-8.6-9.7c-0.2-2.2,0.3-4.2,1.4-6c1.1-1.8,2.8-3.3,5.1-4.4c2.3-1.1,4.8-1.9,7.8-2.1c2.8-0.3,5.4,0,7.8,0.8
		c2.3,0.8,4.2,2.1,5.7,3.9c1.4,1.8,2.2,3.8,2.5,6.3l-9.5,0.9c-0.1-1.6-0.8-2.8-1.8-3.6c-1.1-0.8-2.4-1.1-4.1-1
		c-1.7,0.2-3,0.7-3.9,1.5c-0.9,0.8-1.3,1.8-1.2,3c0.1,1,0.7,1.9,1.9,2.6c1.2,0.7,3.2,1.4,6,2c2.8,0.6,5.2,1.4,7,2.2
		c4.5,2.1,7,5.3,7.4,9.6c0.3,3.5-0.7,6.3-3.2,8.5c-2.4,2.2-5.9,3.5-10.5,3.9c-3.2,0.3-6.2,0-8.9-0.9c-2.7-0.9-4.8-2.3-6.3-4.2
		c-1.5-1.9-2.4-4.1-2.6-6.7l9.6-0.9c0.2,2.1,0.9,3.6,2.1,4.5c1.2,0.9,3,1.2,5.5,1c1.6-0.1,2.8-0.6,3.6-1.4
		C913.3,432.9,913.7,431.9,913.6,430.6z"/>
	<path fill="#040C26" d="M962.1,436.8l-9.5,0.9l-1.5-16.5l-14.1,1.3l1.5,16.5l-9.5,0.9l-3.6-39.6l9.5-0.9l1.4,15.7l14.1-1.3
		l-1.4-15.7l9.5-0.9L962.1,436.8z"/>
	<path fill="#040C26" d="M999.9,414.2c0.4,3.9-0.1,7.3-1.2,10.5s-3,5.6-5.5,7.4c-2.5,1.8-5.4,2.9-8.8,3.2c-3.4,0.3-6.4-0.2-9.2-1.5
		c-2.8-1.3-5-3.3-6.7-6.1c-1.7-2.7-2.8-6-3.2-9.7l-0.2-2.2c-0.4-3.9,0-7.4,1.2-10.5c1.2-3.1,3-5.6,5.5-7.4c2.5-1.9,5.5-2.9,8.8-3.3
		c3.4-0.3,6.4,0.2,9.2,1.6c2.8,1.4,5,3.4,6.8,6.3c1.7,2.8,2.8,6.1,3.1,9.9L999.9,414.2z M990,413.4c-0.4-3.9-1.3-6.9-2.8-8.8
		c-1.5-1.9-3.5-2.8-5.9-2.5c-4.8,0.4-7,4.3-6.6,11.5l0.2,2.9c0.4,3.9,1.3,6.8,2.7,8.8c1.5,2,3.5,2.8,6,2.6c2.4-0.2,4.2-1.4,5.3-3.6
		s1.5-5.2,1.2-9L990,413.4z"/>
	<path fill="#040C26" d="M1014.9,418.4l1.2,13.4l-9.5,0.9l-3.6-39.6l15.8-1.4c3-0.3,5.8,0,8.2,0.9c2.4,0.9,4.4,2.3,5.8,4.3
		s2.3,4.2,2.6,6.8c0.4,3.9-0.7,7.1-3.3,9.6c-2.6,2.6-6.2,4.1-11.1,4.5L1014.9,418.4z M1014.2,411.1l6.3-0.6c1.8-0.2,3.2-0.8,4.1-1.8
		c0.9-1,1.3-2.4,1.1-4c-0.2-1.8-0.8-3.3-1.9-4.3s-2.5-1.5-4.2-1.3l-6.4,0.6L1014.2,411.1z"/>
	<path fill="#040C26" d="M1055.5,417l-4.4,0.4l-0.8,11.3l-5.4,0.5l0.8-11.3l-6,0.6l-0.5-5l6.9-0.6l0.5-7.3l-6,0.5l-0.5-5l6.8-0.6
		l0.8-11.5l5.4-0.5l-0.8,11.5l4.4-0.4l0.8-11.5l5.4-0.5l-0.8,11.5l6.3-0.6l0.5,5l-7.1,0.6l-0.5,7.3l6.2-0.6l0.5,5l-7,0.6l-0.8,11.3
		l-5.4,0.5L1055.5,417z M1051.4,412.4l4.4-0.4l0.5-7.3l-4.4,0.4L1051.4,412.4z"/>
	<path fill="#040C26" d="M11.5,577.5l1.2,13.4l-9.5,0.9l-3.6-39.6l15.8-1.4c3-0.3,5.8,0,8.2,0.9c2.4,0.9,4.4,2.3,5.8,4.3
		s2.3,4.2,2.6,6.8c0.4,3.9-0.7,7.1-3.3,9.6c-2.6,2.6-6.2,4.1-11.1,4.5L11.5,577.5z M10.8,570.1l6.3-0.6c1.8-0.2,3.2-0.8,4.1-1.8
		c0.9-1,1.3-2.4,1.1-4.1c-0.2-1.8-0.8-3.3-1.9-4.3s-2.5-1.5-4.2-1.3l-6.4,0.6L10.8,570.1z"/>
	<path fill="#040C26" d="M72.5,585.5l-9.5,0.9l-1.5-16.5l-14.1,1.3l1.5,16.5l-9.5,0.9l-3.6-39.6l9.5-0.9l1.4,15.7l14.1-1.3
		l-1.4-15.7l9.5-0.9L72.5,585.5z"/>
	<path fill="#040C26" d="M110.3,562.9c0.4,3.9-0.1,7.3-1.2,10.5c-1.2,3.1-3,5.6-5.5,7.4c-2.5,1.8-5.4,2.9-8.8,3.2
		c-3.4,0.3-6.4-0.2-9.2-1.5c-2.8-1.3-5-3.3-6.7-6.1c-1.7-2.7-2.8-6-3.2-9.7l-0.2-2.2c-0.4-3.9,0-7.4,1.2-10.5c1.2-3.1,3-5.6,5.5-7.4
		c2.5-1.9,5.5-2.9,8.9-3.3c3.4-0.3,6.4,0.2,9.2,1.6c2.8,1.4,5,3.4,6.8,6.3c1.7,2.8,2.8,6.1,3.1,9.9L110.3,562.9z M100.5,562.1
		c-0.4-3.9-1.3-6.9-2.8-8.8c-1.5-1.9-3.5-2.8-5.9-2.5c-4.8,0.4-7,4.3-6.6,11.5l0.2,2.9c0.4,3.9,1.3,6.8,2.7,8.8c1.5,2,3.5,2.8,6,2.6
		c2.4-0.2,4.2-1.4,5.3-3.6c1.1-2.2,1.5-5.2,1.2-9L100.5,562.1z"/>
	<path fill="#040C26" d="M142.8,546.5l-11.9,1.1l2.9,32.2l-9.5,0.9l-2.9-32.2l-11.7,1.1l-0.7-7.4l33.1-3L142.8,546.5z"/>
	<path fill="#040C26" d="M180.8,556.4c0.4,3.9-0.1,7.3-1.2,10.5s-3,5.6-5.5,7.4c-2.5,1.8-5.4,2.9-8.8,3.2c-3.4,0.3-6.4-0.2-9.2-1.5
		c-2.8-1.3-5-3.3-6.7-6.1c-1.7-2.8-2.8-6-3.2-9.7L146,558c-0.4-3.9,0-7.4,1.2-10.5c1.2-3.1,3-5.6,5.5-7.4c2.5-1.9,5.5-2.9,8.9-3.3
		c3.4-0.3,6.4,0.2,9.2,1.6c2.8,1.4,5,3.4,6.8,6.3c1.7,2.8,2.8,6.1,3.1,9.9L180.8,556.4z M171,555.7c-0.4-3.9-1.3-6.9-2.8-8.8
		c-1.5-1.9-3.5-2.8-5.9-2.5c-4.8,0.4-7,4.3-6.6,11.5l0.2,2.9c0.4,3.9,1.3,6.8,2.7,8.8c1.5,2,3.5,2.8,6,2.6c2.4-0.2,4.2-1.4,5.3-3.6
		c1.1-2.2,1.5-5.2,1.2-9L171,555.7z"/>
	<path fill="#040C26" d="M207,562.6c-0.1-1.4-0.7-2.4-1.8-3.1c-1.1-0.7-2.9-1.3-5.4-1.9c-2.6-0.6-4.7-1.2-6.3-1.9
		c-5.4-2.1-8.2-5.3-8.6-9.7c-0.2-2.2,0.3-4.2,1.4-6c1.1-1.8,2.8-3.3,5.1-4.4c2.3-1.1,4.8-1.9,7.8-2.1c2.8-0.3,5.4,0,7.8,0.8
		c2.4,0.8,4.2,2.1,5.7,3.9c1.4,1.8,2.2,3.9,2.5,6.3l-9.5,0.9c-0.1-1.6-0.8-2.8-1.8-3.6c-1.1-0.8-2.4-1.1-4.1-1
		c-1.7,0.2-3,0.7-3.9,1.5c-0.9,0.8-1.3,1.8-1.2,3c0.1,1,0.7,1.9,1.9,2.6c1.2,0.7,3.2,1.4,6,2c2.8,0.6,5.2,1.4,7,2.2
		c4.5,2.1,7,5.3,7.4,9.6c0.3,3.5-0.7,6.3-3.2,8.5c-2.4,2.2-5.9,3.5-10.5,3.9c-3.2,0.3-6.2,0-8.9-0.9c-2.7-0.9-4.8-2.3-6.3-4.2
		c-1.5-1.9-2.4-4.1-2.6-6.7l9.6-0.9c0.2,2.1,0.9,3.6,2.1,4.5c1.2,0.9,3,1.2,5.5,1c1.6-0.1,2.8-0.6,3.6-1.4
		C206.7,564.8,207.1,563.8,207,562.6z"/>
	<path fill="#040C26" d="M255.5,568.8l-9.5,0.9l-1.5-16.5l-14.1,1.3l1.5,16.5l-9.5,0.9l-3.6-39.6l9.5-0.9l1.4,15.7l14.1-1.3
		l-1.4-15.7l9.5-0.9L255.5,568.8z"/>
	<path fill="#040C26" d="M293.3,546.2c0.4,3.9-0.1,7.3-1.2,10.5c-1.2,3.1-3,5.6-5.5,7.4c-2.5,1.8-5.4,2.9-8.8,3.2
		c-3.4,0.3-6.4-0.2-9.2-1.5c-2.8-1.3-5-3.3-6.7-6.1c-1.7-2.8-2.8-6-3.2-9.7l-0.2-2.2c-0.4-3.9,0-7.4,1.2-10.5c1.2-3.1,3-5.6,5.5-7.4
		c2.5-1.9,5.5-2.9,8.9-3.3c3.4-0.3,6.4,0.2,9.2,1.6c2.8,1.4,5,3.4,6.8,6.3s2.8,6.1,3.1,9.9L293.3,546.2z M283.5,545.4
		c-0.4-3.9-1.3-6.9-2.8-8.8c-1.5-1.9-3.5-2.8-5.9-2.5c-4.8,0.4-7,4.3-6.6,11.5l0.2,2.9c0.4,3.9,1.3,6.8,2.7,8.8c1.5,2,3.5,2.8,6,2.6
		c2.4-0.2,4.2-1.4,5.3-3.6c1.1-2.2,1.5-5.2,1.2-9L283.5,545.4z"/>
	<path fill="#040C26" d="M308.3,550.4l1.2,13.4l-9.5,0.9l-3.6-39.6l15.8-1.4c3-0.3,5.8,0,8.2,0.9c2.4,0.9,4.4,2.3,5.8,4.3
		c1.5,1.9,2.3,4.2,2.6,6.8c0.4,3.9-0.7,7.1-3.3,9.6s-6.2,4.1-11.1,4.5L308.3,550.4z M307.6,543l6.3-0.6c1.8-0.2,3.2-0.8,4.1-1.8
		c0.9-1,1.3-2.4,1.1-4c-0.2-1.8-0.8-3.3-1.9-4.3s-2.5-1.5-4.2-1.3l-6.4,0.6L307.6,543z"/>
	<path fill="#040C26" d="M348.9,549l-4.4,0.4l-0.8,11.3l-5.4,0.5l0.8-11.3l-6,0.6l-0.5-5l6.9-0.6l0.5-7.3l-6,0.5l-0.5-5l6.8-0.6
		l0.8-11.5l5.4-0.5l-0.8,11.5l4.4-0.4l0.8-11.5l5.4-0.5l-0.8,11.5l6.3-0.6l0.5,5l-7.1,0.6l-0.5,7.3l6.2-0.6l0.5,5l-7,0.6l-0.8,11.3
		l-5.4,0.5L348.9,549z M344.8,544.3l4.4-0.4l0.5-7.3l-4.4,0.4L344.8,544.3z"/>
	<path fill="#040C26" d="M378.8,557.5l-9.5,0.9l-3.6-39.6l9.5-0.9L378.8,557.5z"/>
	<path fill="#040C26" d="M394.3,548.7l16.6-1.5l0.7,7.3l-26.2,2.4l-3.6-39.6l9.5-0.9L394.3,548.7z"/>
	<path fill="#040C26" d="M424.5,545.9l16.6-1.5l0.7,7.3l-26.2,2.4l-3.6-39.6l9.5-0.9L424.5,545.9z"/>
	<path fill="#040C26" d="M472.6,509l2.4,25.9c0.3,2.9-0.1,5.5-1.2,7.8s-2.7,4.1-4.9,5.4c-2.2,1.3-5,2.2-8.1,2.4
		c-4.8,0.4-8.7-0.5-11.7-2.7c-3-2.2-4.7-5.5-5.2-9.9l-2.4-26.1l9.6-0.9l2.4,26.3c0.5,4.3,2.7,6.3,6.6,6c2-0.2,3.4-0.9,4.3-2
		c0.9-1.2,1.3-3,1-5.4l-2.4-25.9L472.6,509z"/>
	<path fill="#040C26" d="M501.6,535.7c-0.1-1.4-0.7-2.4-1.8-3.1c-1.1-0.7-2.9-1.3-5.4-1.9c-2.6-0.6-4.7-1.2-6.3-1.9
		c-5.4-2-8.2-5.3-8.6-9.7c-0.2-2.2,0.3-4.2,1.4-6c1.1-1.8,2.8-3.3,5.1-4.4s4.8-1.9,7.8-2.1c2.8-0.3,5.4,0,7.8,0.8
		c2.3,0.8,4.2,2.1,5.7,3.9s2.2,3.8,2.5,6.3l-9.5,0.9c-0.1-1.6-0.8-2.8-1.8-3.6c-1.1-0.8-2.4-1.1-4.1-1c-1.7,0.2-3,0.7-3.9,1.5
		c-0.9,0.8-1.3,1.8-1.2,3c0.1,1,0.7,1.9,1.9,2.6c1.2,0.7,3.2,1.4,6,2c2.8,0.6,5.2,1.4,7,2.2c4.5,2.1,7,5.3,7.4,9.6
		c0.3,3.5-0.7,6.3-3.2,8.5c-2.4,2.2-5.9,3.5-10.5,3.9c-3.2,0.3-6.2,0-8.9-0.9c-2.7-0.9-4.8-2.3-6.3-4.2c-1.5-1.9-2.4-4.1-2.6-6.7
		l9.6-0.9c0.2,2.1,0.9,3.6,2.1,4.5c1.2,0.9,3,1.2,5.5,1c1.6-0.1,2.8-0.6,3.6-1.4C501.4,537.9,501.7,536.9,501.6,535.7z"/>
	<path fill="#040C26" d="M545.2,509.8l-11.9,1.1l2.9,32.2l-9.5,0.9l-2.9-32.2l-11.7,1.1l-0.7-7.4l33.1-3L545.2,509.8z"/>
	<path fill="#040C26" d="M565.6,526.3l-5.2,0.5l1.3,14l-9.5,0.9l-3.6-39.6l15.6-1.4c4.7-0.4,8.5,0.3,11.3,2.1
		c2.8,1.8,4.4,4.7,4.8,8.5c0.3,2.8-0.1,5.1-1,7c-0.9,1.9-2.6,3.5-4.8,4.9l9.7,15.2l0,0.4l-10.2,0.9L565.6,526.3z M559.7,519.4l6-0.6
		c1.8-0.2,3.1-0.8,4-1.8c0.8-1,1.2-2.4,1-4.1c-0.2-1.7-0.7-3-1.8-3.9c-1-0.9-2.4-1.3-4.2-1.1l-6,0.6L559.7,519.4z"/>
	<path fill="#040C26" d="M610.3,528.9l-13.1,1.2l-1.6,7.6l-10.2,0.9l10.9-40.9l9-0.8l18.3,38.3l-10.3,0.9L610.3,528.9z M598.8,522.5
		l8.5-0.8l-5.5-13.3L598.8,522.5z"/>
	<path fill="#040C26" d="M651.3,500.1l-11.9,1.1l2.9,32.2l-9.5,0.9l-2.9-32.2l-11.7,1.1l-0.7-7.4l33.1-3L651.3,500.1z"/>
	<path fill="#040C26" d="M689.3,510c0.4,3.9-0.1,7.3-1.2,10.5c-1.2,3.1-3,5.6-5.5,7.4c-2.5,1.8-5.4,2.9-8.8,3.2
		c-3.4,0.3-6.4-0.2-9.2-1.5c-2.8-1.3-5-3.3-6.7-6.1c-1.7-2.8-2.8-6-3.2-9.7l-0.2-2.2c-0.4-3.9,0-7.4,1.2-10.5c1.2-3.1,3-5.6,5.5-7.4
		c2.5-1.9,5.5-2.9,8.9-3.3c3.4-0.3,6.4,0.2,9.2,1.6c2.8,1.4,5,3.4,6.8,6.3c1.7,2.8,2.8,6.1,3.1,9.9L689.3,510z M679.5,509.2
		c-0.4-3.9-1.3-6.9-2.8-8.8c-1.5-1.9-3.5-2.8-5.9-2.5c-4.8,0.4-7,4.3-6.6,11.5l0.2,2.9c0.4,3.9,1.3,6.8,2.7,8.8c1.5,2,3.5,2.8,6,2.6
		c2.4-0.2,4.2-1.4,5.3-3.6c1.1-2.2,1.5-5.2,1.2-9L679.5,509.2z"/>
	<path fill="#040C26" d="M709.4,513.2l-5.2,0.5l1.3,14l-9.5,0.9l-3.6-39.6l15.6-1.4c4.7-0.4,8.5,0.3,11.3,2.1
		c2.8,1.8,4.4,4.7,4.8,8.5c0.3,2.8-0.1,5.1-1,7c-1,1.9-2.6,3.5-4.8,4.9l9.7,15.2l0,0.4l-10.2,0.9L709.4,513.2z M703.6,506.3l6-0.6
		c1.8-0.2,3.1-0.8,4-1.8c0.8-1,1.2-2.4,1-4.1c-0.2-1.7-0.7-3-1.8-3.9c-1-0.9-2.4-1.3-4.2-1.1l-6,0.6L703.6,506.3z"/>
	<path fill="#040C26" d="M745,512.8l-4.4,0.4l-0.8,11.3l-5.4,0.5l0.8-11.3l-6,0.6l-0.5-5l6.9-0.6l0.5-7.3l-6,0.5l-0.5-5l6.8-0.6
		l0.8-11.5l5.4-0.5l-0.8,11.5l4.4-0.4l0.8-11.5l5.4-0.5l-0.8,11.5l6.3-0.6l0.5,5l-7.1,0.6l-0.5,7.3l6.2-0.6l0.5,5l-7,0.6l-0.8,11.3
		l-5.4,0.5L745,512.8z M740.9,508.1l4.4-0.4l0.5-7.3l-4.4,0.4L740.9,508.1z"/>
	<path fill="#040C26" d="M774.9,521.3l-9.5,0.9l-3.6-39.6l9.5-0.9L774.9,521.3z"/>
	<path fill="#040C26" d="M814.6,517.7l-9.5,0.9l-16.3-23.4l2.3,24.6l-9.5,0.9l-3.6-39.6l9.5-0.9l16.3,23.4l-2.3-24.6l9.5-0.9
		L814.6,517.7z"/>
	<path fill="#040C26" d="M820.6,517.1l-3.6-39.6l12.8-1.2c3.5-0.3,6.7,0.2,9.7,1.5c2.9,1.3,5.3,3.4,7.2,6.1c1.8,2.7,2.9,5.9,3.3,9.5
		l0.2,1.8c0.3,3.6-0.1,6.9-1.4,10c-1.3,3-3.2,5.5-5.9,7.3c-2.6,1.9-5.7,3-9.1,3.3L820.6,517.1z M827.2,484l2.3,24.9l3.3-0.3
		c2.7-0.3,4.8-1.4,6-3.5c1.3-2.1,1.8-5,1.4-8.9l-0.2-1.7c-0.3-3.8-1.3-6.6-3-8.4c-1.6-1.8-3.9-2.6-6.7-2.3L827.2,484z"/>
	<path fill="#040C26" d="M879.7,494.8l-15,1.4l0.9,9.5l17.7-1.6l0.7,7.3l-27.3,2.5l-3.6-39.6l27.3-2.5l0.7,7.4l-17.8,1.6l0.8,8.4
		l15-1.4L879.7,494.8z"/>
	<path fill="#040C26" d="M907.3,498.6c-0.1-1.4-0.7-2.4-1.8-3.1c-1.1-0.7-2.9-1.3-5.4-1.9c-2.6-0.6-4.7-1.2-6.3-1.9
		c-5.4-2-8.2-5.3-8.6-9.7c-0.2-2.2,0.3-4.2,1.4-6c1.1-1.8,2.8-3.3,5.1-4.4c2.3-1.1,4.8-1.9,7.8-2.1c2.8-0.3,5.4,0,7.8,0.8
		c2.3,0.8,4.2,2.1,5.7,3.9c1.4,1.8,2.2,3.8,2.5,6.3l-9.5,0.9c-0.1-1.6-0.8-2.8-1.8-3.6c-1.1-0.8-2.4-1.1-4.1-1
		c-1.7,0.2-3,0.7-3.9,1.5c-0.9,0.8-1.3,1.8-1.2,3c0.1,1,0.7,1.9,1.9,2.6c1.2,0.7,3.2,1.4,6,2c2.8,0.6,5.2,1.4,7,2.2
		c4.5,2.1,7,5.3,7.4,9.6c0.3,3.5-0.7,6.3-3.2,8.5c-2.4,2.2-5.9,3.5-10.5,3.9c-3.2,0.3-6.2,0-8.9-0.9c-2.7-0.9-4.8-2.3-6.3-4.2
		c-1.5-1.9-2.4-4.1-2.6-6.7l9.6-0.9c0.2,2.1,0.9,3.6,2.1,4.5c1.2,0.9,3,1.2,5.5,1c1.6-0.1,2.8-0.6,3.6-1.4
		C907,500.8,907.4,499.8,907.3,498.6z"/>
	<path fill="#040C26" d="M932.8,506.9l-9.5,0.9l-3.6-39.6l9.5-0.9L932.8,506.9z"/>
	<path fill="#040C26" d="M971.5,498.4c-1.3,1.8-3.3,3.3-6.1,4.5c-2.7,1.3-5.8,2-9.2,2.3c-5.2,0.5-9.5-0.7-12.9-3.6
		c-3.4-2.9-5.5-7.2-6.2-12.8l-0.3-3.4c-0.4-3.9,0-7.4,1.1-10.4c1.1-3,2.9-5.5,5.3-7.3c2.4-1.8,5.3-2.9,8.7-3.2
		c4.9-0.5,8.9,0.3,11.8,2.3c2.9,2,4.8,5.2,5.7,9.7l-9.2,0.8c-0.5-2.2-1.4-3.7-2.6-4.5c-1.2-0.8-2.8-1.2-4.8-1
		c-2.4,0.2-4.2,1.4-5.3,3.6s-1.5,5.1-1.2,8.9l0.2,2.4c0.4,4,1.3,6.9,2.8,8.7c1.5,1.9,3.7,2.7,6.6,2.4c2.5-0.2,4.3-0.9,5.4-2.2
		l-0.6-6.1l-6.6,0.6l-0.6-6.6l16.2-1.5L971.5,498.4z"/>
	<path fill="#040C26" d="M1010.5,499.8l-9.5,0.9l-16.3-23.4l2.3,24.6l-9.5,0.9l-3.6-39.6l9.5-0.9l16.3,23.4l-2.3-24.6l9.5-0.9
		L1010.5,499.8z"/>
	<path fill="#040C26" d="M1029.2,486.8l-4.4,0.4l-0.8,11.3l-5.4,0.5l0.8-11.3l-6,0.6l-0.5-5l6.9-0.6l0.5-7.3l-6,0.5l-0.5-5l6.8-0.6
		l0.8-11.5l5.4-0.5l-0.8,11.5l4.4-0.4l0.8-11.5l5.4-0.5l-0.8,11.5l6.3-0.6l0.5,5l-7.1,0.6l-0.5,7.3l6.2-0.6l0.5,5l-7,0.6l-0.8,11.3
		l-5.4,0.5L1029.2,486.8z M1025.2,482.2l4.4-0.4l0.5-7.3l-4.4,0.4L1025.2,482.2z"/>
	<path fill="#040C26" d="M21.9,646.3l-4.4,0.4L16.7,658l-5.4,0.5l0.8-11.3l-6,0.6l-0.5-5l6.9-0.6l0.5-7.3l-6,0.5l-0.5-5l6.8-0.6
		l0.8-11.5l5.4-0.5l-0.8,11.5l4.4-0.4l0.8-11.5l5.4-0.5l-0.8,11.5l6.3-0.6l0.5,5l-7.1,0.6l-0.5,7.3l6.2-0.6l0.5,5l-7,0.6l-0.8,11.3
		l-5.4,0.5L21.9,646.3z M17.9,641.6l4.4-0.4l0.5-7.3l-4.4,0.4L17.9,641.6z"/>
	<path fill="#040C26" d="M51.8,654.8l-9.5,0.9L38.6,616l9.5-0.9L51.8,654.8z"/>
	<path fill="#040C26" d="M67.3,645.9l16.6-1.5l0.7,7.3l-26.2,2.4l-3.6-39.6l9.5-0.9L67.3,645.9z"/>
	<path fill="#040C26" d="M97.5,643.2l16.6-1.5l0.7,7.3l-26.2,2.4L85,611.8l9.5-0.9L97.5,643.2z"/>
	<path fill="#040C26" d="M145.6,606.3l2.4,25.9c0.3,2.9-0.1,5.5-1.2,7.8c-1.1,2.3-2.7,4.1-4.9,5.4c-2.2,1.3-5,2.2-8.1,2.4
		c-4.8,0.4-8.7-0.5-11.7-2.7c-3-2.2-4.7-5.5-5.2-9.9l-2.4-26.1l9.6-0.9l2.4,26.3c0.5,4.3,2.7,6.3,6.6,5.9c2-0.2,3.4-0.9,4.3-2
		c0.9-1.2,1.3-3,1-5.4l-2.4-25.9L145.6,606.3z"/>
	<path fill="#040C26" d="M174.6,632.9c-0.1-1.4-0.7-2.4-1.8-3.1c-1.1-0.7-2.9-1.3-5.4-1.9c-2.6-0.6-4.7-1.2-6.3-1.9
		c-5.4-2.1-8.2-5.3-8.6-9.7c-0.2-2.2,0.3-4.2,1.4-6c1.1-1.8,2.8-3.3,5.1-4.4c2.3-1.1,4.8-1.9,7.8-2.1c2.8-0.3,5.4,0,7.8,0.8
		c2.4,0.8,4.2,2.1,5.7,3.9c1.4,1.8,2.2,3.8,2.5,6.3l-9.5,0.9c-0.1-1.6-0.8-2.8-1.8-3.6c-1.1-0.8-2.4-1.1-4.1-1
		c-1.7,0.2-3,0.7-3.9,1.5c-0.9,0.8-1.3,1.8-1.2,3c0.1,1,0.7,1.9,1.9,2.6c1.2,0.7,3.2,1.4,6,2s5.2,1.4,7,2.2c4.5,2.1,7,5.3,7.4,9.6
		c0.3,3.5-0.7,6.3-3.2,8.5c-2.4,2.2-5.9,3.5-10.5,3.9c-3.2,0.3-6.2,0-8.9-0.9c-2.7-0.9-4.8-2.3-6.3-4.2c-1.5-1.9-2.4-4.1-2.6-6.7
		l9.6-0.9c0.2,2.1,0.9,3.6,2.1,4.5c1.2,0.9,3,1.2,5.5,1c1.6-0.1,2.8-0.6,3.6-1.4C174.4,635.2,174.7,634.2,174.6,632.9z"/>
	<path fill="#040C26" d="M218.2,607.1l-11.9,1.1l2.9,32.2l-9.5,0.9l-2.9-32.2l-11.7,1.1l-0.7-7.4l33.1-3L218.2,607.1z"/>
	<path fill="#040C26" d="M238.6,623.6l-5.2,0.5l1.3,14l-9.5,0.9l-3.6-39.6l15.6-1.4c4.7-0.4,8.5,0.3,11.3,2.1
		c2.8,1.8,4.4,4.7,4.8,8.5c0.3,2.8-0.1,5.1-1,7c-0.9,1.9-2.6,3.5-4.8,4.9l9.7,15.2l0,0.4l-10.2,0.9L238.6,623.6z M232.8,616.7l6-0.6
		c1.8-0.2,3.1-0.8,4-1.8c0.8-1,1.2-2.4,1-4.1c-0.2-1.7-0.7-3-1.8-3.9c-1-0.9-2.4-1.2-4.2-1.1l-6,0.6L232.8,616.7z"/>
	<path fill="#040C26" d="M283.3,626.2l-13.1,1.2l-1.6,7.6l-10.2,0.9l10.9-40.9l9-0.8l18.3,38.3l-10.3,0.9L283.3,626.2z M271.8,619.8
		l8.5-0.8l-5.5-13.3L271.8,619.8z"/>
	<path fill="#040C26" d="M324.3,597.4l-11.9,1.1l2.9,32.2l-9.5,0.9l-2.9-32.2l-11.7,1.1l-0.7-7.4l33.1-3L324.3,597.4z"/>
	<path fill="#040C26" d="M362.3,607.3c0.4,3.9-0.1,7.3-1.2,10.5c-1.2,3.1-3,5.6-5.5,7.4c-2.5,1.8-5.4,2.9-8.8,3.2
		c-3.4,0.3-6.4-0.2-9.2-1.5c-2.8-1.3-5-3.3-6.7-6.1c-1.7-2.7-2.8-6-3.2-9.7l-0.2-2.2c-0.4-3.9,0-7.4,1.2-10.5c1.2-3.1,3-5.6,5.5-7.4
		c2.5-1.9,5.5-2.9,8.9-3.3c3.4-0.3,6.4,0.2,9.2,1.6c2.8,1.4,5,3.4,6.8,6.3c1.7,2.8,2.8,6.1,3.1,9.9L362.3,607.3z M352.5,606.5
		c-0.4-3.9-1.3-6.9-2.8-8.8c-1.5-1.9-3.5-2.8-5.9-2.5c-4.8,0.4-7,4.3-6.6,11.5l0.2,2.9c0.4,3.9,1.3,6.8,2.7,8.8c1.5,2,3.5,2.8,6,2.6
		c2.4-0.2,4.2-1.4,5.3-3.6c1.1-2.2,1.5-5.2,1.2-9L352.5,606.5z"/>
	<path fill="#040C26" d="M382.4,610.4l-5.2,0.5l1.3,14l-9.5,0.9l-3.6-39.6l15.6-1.4c4.7-0.4,8.5,0.3,11.3,2.1
		c2.8,1.8,4.4,4.7,4.8,8.5c0.3,2.8-0.1,5.1-1,7c-0.9,1.9-2.6,3.5-4.8,4.9l9.7,15.2l0,0.4l-10.2,0.9L382.4,610.4z M376.6,603.6l6-0.6
		c1.8-0.2,3.1-0.8,4-1.8c0.8-1,1.2-2.4,1-4.1c-0.2-1.7-0.7-3-1.8-3.9c-1-0.9-2.4-1.3-4.2-1.1l-6,0.6L376.6,603.6z"/>
	<path fill="#040C26" d="M418,610.1l-4.4,0.4l-0.8,11.3l-5.4,0.5l0.8-11.3l-6,0.6l-0.5-5l6.9-0.6l0.5-7.3l-6,0.5l-0.5-5l6.8-0.6
		l0.8-11.5l5.4-0.5l-0.8,11.5l4.4-0.4l0.8-11.5l5.4-0.5l-0.8,11.5l6.3-0.6l0.5,5l-7.1,0.6l-0.5,7.3l6.2-0.6l0.5,5l-7,0.6l-0.8,11.3
		l-5.4,0.5L418,610.1z M413.9,605.4l4.4-0.4l0.5-7.3l-4.4,0.4L413.9,605.4z"/>
	<path fill="#040C26" d="M447.9,618.6l-9.5,0.9l-3.6-39.6l9.5-0.9L447.9,618.6z"/>
	<path fill="#040C26" d="M487.6,615l-9.5,0.9l-16.3-23.4l2.3,24.6l-9.5,0.9l-3.6-39.6l9.5-0.9l16.3,23.4l-2.3-24.6l9.5-0.9
		L487.6,615z"/>
	<path fill="#040C26" d="M493.6,614.4l-3.6-39.6l12.8-1.2c3.5-0.3,6.7,0.2,9.7,1.5c2.9,1.3,5.3,3.4,7.2,6.1c1.8,2.7,2.9,5.9,3.3,9.5
		l0.2,1.8c0.3,3.6-0.1,6.9-1.4,10c-1.3,3-3.2,5.5-5.9,7.3c-2.6,1.9-5.7,3-9.1,3.3L493.6,614.4z M500.2,581.3l2.3,24.9l3.3-0.3
		c2.7-0.3,4.8-1.4,6-3.5c1.3-2.1,1.8-5,1.4-8.9l-0.2-1.7c-0.3-3.8-1.3-6.6-3-8.4c-1.6-1.8-3.9-2.6-6.7-2.3L500.2,581.3z"/>
	<path fill="#040C26" d="M552.7,592.1l-15,1.4l0.9,9.5l17.7-1.6l0.7,7.3l-27.3,2.5l-3.6-39.6l27.3-2.5l0.7,7.4l-17.8,1.6l0.8,8.4
		l15-1.4L552.7,592.1z"/>
	<path fill="#040C26" d="M580.3,595.9c-0.1-1.4-0.7-2.4-1.8-3.1c-1.1-0.7-2.9-1.3-5.4-1.9c-2.6-0.6-4.7-1.2-6.3-1.9
		c-5.4-2.1-8.2-5.3-8.6-9.7c-0.2-2.2,0.3-4.2,1.4-6c1.1-1.8,2.8-3.3,5.1-4.4c2.3-1.1,4.8-1.9,7.8-2.1c2.8-0.3,5.4,0,7.8,0.8
		s4.2,2.1,5.7,3.9c1.4,1.8,2.2,3.8,2.5,6.3l-9.5,0.9c-0.1-1.6-0.8-2.8-1.8-3.6c-1.1-0.8-2.4-1.1-4.1-1c-1.7,0.2-3,0.7-3.9,1.5
		c-0.9,0.8-1.3,1.8-1.2,3c0.1,1,0.7,1.9,1.9,2.6c1.2,0.7,3.2,1.4,6,2c2.8,0.6,5.2,1.4,7,2.2c4.5,2.1,7,5.3,7.4,9.6
		c0.3,3.5-0.7,6.3-3.2,8.5c-2.4,2.2-5.9,3.5-10.5,3.9c-3.2,0.3-6.2,0-8.9-0.9c-2.7-0.9-4.8-2.3-6.3-4.2c-1.5-1.9-2.4-4.1-2.6-6.7
		l9.6-0.9c0.2,2.1,0.9,3.6,2.1,4.5c1.2,0.9,3,1.2,5.5,1c1.6-0.1,2.8-0.6,3.6-1.4C580,598.1,580.4,597.1,580.3,595.9z"/>
	<path fill="#040C26" d="M605.9,604.2l-9.5,0.9l-3.6-39.6l9.5-0.9L605.9,604.2z"/>
	<path fill="#040C26" d="M644.5,595.7c-1.3,1.8-3.3,3.3-6.1,4.5c-2.7,1.3-5.8,2-9.2,2.3c-5.2,0.5-9.5-0.7-12.9-3.6
		c-3.4-2.9-5.5-7.2-6.2-12.8l-0.3-3.4c-0.4-3.9,0-7.4,1.1-10.4c1.1-3,2.9-5.5,5.3-7.3c2.4-1.8,5.3-2.9,8.7-3.2
		c4.9-0.5,8.9,0.3,11.8,2.3c2.9,2,4.8,5.2,5.7,9.7l-9.2,0.8c-0.5-2.2-1.4-3.7-2.6-4.5c-1.2-0.8-2.8-1.2-4.8-1
		c-2.4,0.2-4.2,1.4-5.3,3.6c-1.1,2.2-1.5,5.1-1.2,8.9l0.2,2.4c0.4,4,1.3,6.9,2.8,8.7c1.5,1.9,3.7,2.7,6.6,2.4
		c2.5-0.2,4.3-0.9,5.4-2.2l-0.6-6.1l-6.6,0.6l-0.6-6.6l16.2-1.5L644.5,595.7z"/>
	<path fill="#040C26" d="M683.5,597.1l-9.5,0.9l-16.3-23.4l2.3,24.6l-9.5,0.9l-3.6-39.6l9.5-0.9l16.3,23.4l-2.3-24.6l9.5-0.9
		L683.5,597.1z"/>
	<path fill="#040C26" d="M702.2,584.1l-4.4,0.4l-0.8,11.3l-5.4,0.5l0.8-11.3l-6,0.6l-0.5-5l6.9-0.6l0.5-7.3l-6,0.5l-0.5-5l6.8-0.6
		l0.8-11.5l5.4-0.5l-0.8,11.5l4.4-0.4l0.8-11.5l5.4-0.5l-0.8,11.5l6.3-0.6l0.5,5l-7.1,0.6l-0.5,7.3l6.2-0.6l0.5,5l-7,0.6l-0.8,11.3
		l-5.4,0.5L702.2,584.1z M698.2,579.5l4.4-0.4l0.5-7.3l-4.4,0.4L698.2,579.5z"/>
	<path fill="#040C26" d="M730.3,579.2l1.2,13.4l-9.5,0.9l-3.6-39.6l15.8-1.4c3-0.3,5.8,0,8.2,0.9s4.4,2.3,5.8,4.3
		c1.5,1.9,2.3,4.2,2.6,6.8c0.4,3.9-0.7,7.1-3.3,9.6c-2.6,2.6-6.2,4.1-11.1,4.5L730.3,579.2z M729.6,571.9l6.3-0.6
		c1.8-0.2,3.2-0.8,4.1-1.8c0.9-1,1.3-2.4,1.1-4c-0.2-1.8-0.8-3.3-1.9-4.3s-2.5-1.5-4.2-1.3l-6.4,0.6L729.6,571.9z"/>
	<path fill="#040C26" d="M791.3,587.2l-9.5,0.9l-1.5-16.5l-14.1,1.3l1.5,16.5l-9.5,0.9l-3.6-39.6l9.5-0.9l1.4,15.7l14.1-1.3
		l-1.4-15.7l9.5-0.9L791.3,587.2z"/>
	<path fill="#040C26" d="M829.1,564.6c0.4,3.9-0.1,7.3-1.2,10.5s-3,5.6-5.5,7.4c-2.5,1.8-5.4,2.9-8.8,3.2c-3.4,0.3-6.4-0.2-9.2-1.5
		c-2.8-1.3-5-3.3-6.7-6.1c-1.7-2.8-2.8-6-3.2-9.7l-0.2-2.2c-0.4-3.9,0-7.4,1.2-10.5c1.2-3.1,3-5.6,5.5-7.4c2.5-1.9,5.5-2.9,8.9-3.2
		c3.4-0.3,6.4,0.2,9.2,1.6c2.8,1.4,5,3.4,6.8,6.3s2.8,6.1,3.1,9.9L829.1,564.6z M819.3,563.8c-0.4-3.9-1.3-6.9-2.8-8.8
		c-1.5-1.9-3.5-2.8-5.9-2.5c-4.8,0.4-7,4.3-6.6,11.5l0.2,2.9c0.4,3.9,1.3,6.8,2.7,8.8c1.5,2,3.5,2.8,6,2.6c2.4-0.2,4.2-1.4,5.3-3.6
		s1.5-5.2,1.2-9L819.3,563.8z"/>
	<path fill="#040C26" d="M861.6,548.3l-11.9,1.1l2.9,32.2l-9.5,0.9l-2.9-32.2l-11.7,1.1l-0.7-7.4l33.1-3L861.6,548.3z"/>
	<path fill="#040C26" d="M899.6,558.2c0.4,3.9-0.1,7.3-1.2,10.5c-1.2,3.1-3,5.6-5.5,7.4c-2.5,1.8-5.4,2.9-8.8,3.2
		c-3.4,0.3-6.4-0.2-9.2-1.5c-2.8-1.3-5-3.3-6.7-6.1c-1.7-2.7-2.8-6-3.2-9.7l-0.2-2.2c-0.4-3.9,0-7.4,1.2-10.5c1.2-3.1,3-5.6,5.5-7.4
		c2.5-1.9,5.5-2.9,8.8-3.3c3.4-0.3,6.4,0.2,9.2,1.6c2.8,1.4,5,3.4,6.8,6.3c1.7,2.8,2.8,6.1,3.1,9.9L899.6,558.2z M889.8,557.4
		c-0.4-3.9-1.3-6.9-2.8-8.8c-1.5-1.9-3.5-2.8-5.9-2.5c-4.8,0.4-7,4.3-6.6,11.5l0.2,2.9c0.4,3.9,1.3,6.8,2.8,8.8c1.5,2,3.5,2.8,6,2.6
		c2.4-0.2,4.2-1.4,5.3-3.6c1.1-2.2,1.5-5.2,1.2-9L889.8,557.4z"/>
	<path fill="#040C26" d="M925.8,564.3c-0.1-1.4-0.7-2.4-1.8-3.1c-1.1-0.7-2.9-1.3-5.4-1.9c-2.6-0.6-4.7-1.2-6.3-1.9
		c-5.4-2.1-8.2-5.3-8.6-9.7c-0.2-2.2,0.3-4.2,1.4-6c1.1-1.8,2.8-3.3,5.1-4.4c2.3-1.1,4.8-1.9,7.8-2.1c2.8-0.3,5.4,0,7.8,0.8
		c2.4,0.8,4.2,2.1,5.7,3.9s2.2,3.8,2.5,6.3l-9.5,0.9c-0.1-1.6-0.8-2.8-1.8-3.6c-1.1-0.8-2.4-1.1-4.1-1c-1.7,0.2-3,0.7-3.9,1.5
		c-0.9,0.8-1.3,1.8-1.2,3c0.1,1,0.7,1.9,1.9,2.6c1.2,0.7,3.2,1.4,6,2c2.8,0.6,5.2,1.4,7,2.2c4.5,2.1,7,5.3,7.4,9.6
		c0.3,3.5-0.7,6.3-3.2,8.5c-2.4,2.2-5.9,3.5-10.5,3.9c-3.2,0.3-6.2,0-8.9-0.9c-2.7-0.9-4.8-2.3-6.3-4.2c-1.5-1.9-2.4-4.1-2.6-6.7
		l9.6-0.9c0.2,2.1,0.9,3.6,2.1,4.5s3,1.2,5.5,1c1.6-0.1,2.8-0.6,3.6-1.4C925.5,566.6,925.9,565.6,925.8,564.3z"/>
	<path fill="#040C26" d="M974.3,570.5l-9.5,0.9l-1.5-16.5l-14.1,1.3l1.5,16.5l-9.5,0.9l-3.6-39.6l9.5-0.9l1.4,15.7l14.1-1.3
		l-1.4-15.7l9.5-0.9L974.3,570.5z"/>
	<path fill="#040C26" d="M1012.1,547.9c0.4,3.9-0.1,7.3-1.2,10.5c-1.2,3.1-3,5.6-5.5,7.4c-2.5,1.8-5.4,2.9-8.8,3.2
		c-3.4,0.3-6.4-0.2-9.2-1.5c-2.8-1.3-5-3.3-6.7-6.1c-1.7-2.7-2.8-6-3.2-9.7l-0.2-2.2c-0.4-3.9,0-7.4,1.2-10.5c1.2-3.1,3-5.6,5.5-7.4
		c2.5-1.9,5.5-2.9,8.9-3.2c3.4-0.3,6.4,0.2,9.2,1.6c2.8,1.4,5,3.4,6.8,6.3c1.7,2.8,2.8,6.1,3.1,9.9L1012.1,547.9z M1002.3,547.1
		c-0.4-3.9-1.3-6.9-2.8-8.8c-1.5-1.9-3.5-2.8-5.9-2.5c-4.8,0.4-7,4.3-6.6,11.5l0.2,2.9c0.4,3.9,1.3,6.8,2.8,8.8c1.5,2,3.5,2.8,6,2.6
		c2.4-0.2,4.2-1.4,5.3-3.6c1.1-2.2,1.5-5.2,1.2-9L1002.3,547.1z"/>
	<path fill="#040C26" d="M1027.1,552.1l1.2,13.4l-9.5,0.9l-3.6-39.6l15.8-1.4c3-0.3,5.8,0,8.2,0.9c2.4,0.9,4.4,2.3,5.8,4.3
		c1.5,1.9,2.3,4.2,2.6,6.8c0.4,3.9-0.7,7.1-3.3,9.6c-2.6,2.6-6.2,4.1-11.1,4.5L1027.1,552.1z M1026.4,544.8l6.3-0.6
		c1.9-0.2,3.2-0.8,4.1-1.8c0.9-1,1.3-2.4,1.1-4.1c-0.2-1.8-0.8-3.3-1.9-4.3c-1.1-1-2.5-1.5-4.2-1.3l-6.4,0.6L1026.4,544.8z"/>
	<path fill="#040C26" d="M1067.7,550.7l-4.4,0.4l-0.8,11.3l-5.4,0.5l0.8-11.3l-6,0.6l-0.5-5l6.9-0.6l0.5-7.3l-6,0.5l-0.5-5l6.8-0.6
		l0.8-11.5l5.4-0.5l-0.8,11.5l4.4-0.4l0.8-11.5l5.4-0.5l-0.8,11.5l6.3-0.6l0.5,5l-7.1,0.6l-0.5,7.3l6.2-0.6l0.5,5l-7,0.6l-0.8,11.3
		l-5.4,0.5L1067.7,550.7z M1063.7,546.1l4.4-0.4l0.5-7.3l-4.4,0.4L1063.7,546.1z"/>
</g>
</svg>
